<?xml version="1.0"?>
<!DOCTYPE svg PUBLIC "-//W3C//DTD SVG 1.1//EN" "http://www.w3.org/Graphics/SVG/1.1/DTD/svg11.dtd">
<svg width="234.60000000000002mm" height="54.6000000000001mm" viewBox="0 0 234.60000000000002 54.6000000000001" xmlns="http://www.w3.org/2000/svg" version="1.1">
<g id="Sketch001" transform="translate(45.300000,97.300000) scale(1,-1)">
<path id="Sketch001_w0000"  d="M 183.99999999999997 45.00000000000001 L 183.99999999999997 51.25000000000002 L 186.99999999999997 51.25000000000002 L 186.99999999999997 55.87500000000002 L 183.99999999999997 55.87500000000002 L 183.99999999999997 57.50000000000002 L 183.99999999999997 59.12500000000002 L 186.99999999999997 59.12500000000002 L 186.99999999999997 63.75000000000001 L 183.99999999999997 63.75000000000001 L 183.99999999999994 95.00000000000001 L 158.24999999999994 94.964851 L 158.24999999999997 91.964851 L 131.1250000000056 92.0 L 131.1250000000056 88.05000000000001 L 132.3750000000056 88.05000000000001 L 132.3750000000056 85.4 L 131.1250000000056 85.4 L 131.1250000000056 82.75 L 127.8750000000056 82.75 L 127.8750000000056 85.4 L 126.6250000000056 85.4 L 126.6250000000056 88.05000000000001 L 127.8750000000056 88.05000000000001 L 127.8750000000056 92.0 L 100.74999999999996 91.99999999999999 L 100.74999999999996 94.99999999999999 L 43.24999999999996 94.99999999999996 L 43.24999999999996 91.99999999999996 L 16.12499999999997 91.99999999999994 L 16.12499999999997 88.04999999999995 L 17.37499999999997 88.04999999999995 L 17.37499999999997 85.39999999999995 L 16.12499999999997 85.39999999999995 L 16.12499999999997 82.74999999999994 L 12.874999999999972 82.74999999999994 L 12.874999999999972 85.39999999999995 L 11.624999999999972 85.39999999999995 L 11.624999999999972 88.04999999999995 L 12.874999999999972 88.04999999999995 L 12.874999999999972 91.99999999999994 L -14.250000000000028 91.99999999999993 L -14.250000000000028 94.99999999999993 L -40.00000000000003 94.99999999999991 L -40.00000000000003 63.74999999999991 L -43.00000000000003 63.74999999999992 L -43.00000000000003 59.12499999999992 L -39.75000000000003 59.12499999999992 L -39.75000000000003 57.49999999999992 L -39.75000000000003 55.87499999999992 L -43.00000000000003 55.87499999999992 L -43.00000000000003 51.24999999999992 L -40.00000000000003 51.24999999999992 L -40.00000000000003 44.99999999999991 L -14.24999999997749 44.99999999999992 L -14.24999999997749 47.99999999999992 L 12.875000000005599 47.99999999999993 L 12.875000000005599 51.950000000011194 L 11.625000000005599 51.950000000011194 L 11.625000000005599 54.6000000000112 L 12.875000000005599 54.6000000000112 L 12.875000000005599 57.2500000000112 L 16.1250000000056 57.250000000011205 L 16.1250000000056 54.60000000001121 L 17.3750000000056 54.60000000001121 L 17.3750000000056 51.94999999999994 L 16.1250000000056 51.94999999999994 L 16.1250000000056 47.999999999999936 L 43.24999999999997 47.99999999999994 L 43.249999999999986 44.99999999999994 L 100.74999999999999 44.99999999999997 L 100.74999999999997 47.99999999999997 L 127.87500000000561 47.999999999999986 L 127.87500000000561 51.94999999998872 L 126.62500000000561 51.94999999998871 L 126.62500000000561 54.59999999999998 L 127.87500000000561 54.59999999999999 L 127.8750000000056 57.249999999999986 L 131.1250000000056 57.249999999999986 L 131.12500000000563 54.59999999999999 L 132.37500000000563 54.59999999999999 L 132.37500000000563 51.94999999999999 L 131.12500000000563 51.94999999999999 L 131.12500000000563 47.999999999999986 L 158.24999999999997 47.99999999999999 L 158.24999999999997 44.99999999999999 L 183.99999999999997 45.00000000000001 " stroke="#ff0000" stroke-width="0.35 px" style="stroke-width:0.35;stroke-miterlimit:4;stroke-dasharray:none;stroke-linecap:square;fill:none;fill-opacity:1;fill-rule: evenodd"/>
<title>b'Sketch001'</title>
</g>
</svg>