<?xml version="1.0"?>
<!DOCTYPE svg PUBLIC "-//W3C//DTD SVG 1.1//EN" "http://www.w3.org/Graphics/SVG/1.1/DTD/svg11.dtd">
<svg width="51.00000000000004mm" height="181.00000000000006mm" viewBox="0 0 51.00000000000004 181.00000000000006" xmlns="http://www.w3.org/2000/svg" version="1.1">
<g id="Sketch019" transform="translate(-44.500000,150.500000) scale(1,-1)">
<path id="Sketch019_w0000"  d="M 44.999999999999986 77.00000000000003 L 44.99999999999997 150.00000000000003 L 51.19999999999998 150.00000000000003 L 51.19999999999998 147.00000000000003 L 55.89999999999998 147.00000000000003 L 55.89999999999998 143.00000000000003 L 54.69999999999998 143.00000000000003 L 54.69999999999998 140.40000000000003 L 55.89999999999998 140.40000000000003 L 55.89999999999998 137.80000000000004 L 59.19999999999998 137.80000000000004 L 59.19999999999998 140.40000000000003 L 60.39999999999998 140.40000000000003 L 60.39999999999998 143.00000000000003 L 59.19999999999998 143.00000000000003 L 59.19999999999998 147.00000000000003 L 63.89999999999998 147.00000000000003 L 63.89999999999998 150.00000000000003 L 94.99999999999997 150.00000000000006 L 94.99999999999999 127.50000000000006 L 91.99999999999999 127.50000000000006 L 91.99999999999999 106.62000000000005 L 87.99999999999999 106.62000000000005 L 87.99999999999999 107.82000000000005 L 85.39999999999999 107.82000000000005 L 85.39999999999999 106.62000000000005 L 82.79999999999998 106.62000000000005 L 82.79999999999998 103.32000000000005 L 85.39999999999999 103.32000000000005 L 85.39999999999999 102.12000000000005 L 87.99999999999999 102.12000000000005 L 87.99999999999999 103.32000000000005 L 91.99999999999999 103.32000000000005 L 91.99999999999999 82.44000000000004 L 94.99999999999999 82.44000000000004 L 95.0 37.44000000000004 L 92.0 37.44000000000004 L 92.0 16.56000000000003 L 88.0 16.56000000000003 L 88.0 17.760000000000034 L 85.4 17.760000000000034 L 85.4 16.56000000000003 L 82.8 16.56000000000003 L 82.80000000000001 13.260000000000026 L 85.40000000000002 13.260000000000026 L 85.40000000000002 12.060000000000027 L 88.00000000000001 12.060000000000027 L 88.00000000000001 13.260000000000026 L 92.00000000000001 13.26000000000003 L 92.00000000000001 -7.619999999999973 L 95.00000000000001 -7.619999999999973 L 95.00000000000001 -29.999999999999982 L 63.90000000000001 -29.99999999999999 L 63.90000000000001 -26.999999999999986 L 59.20000000000002 -26.99999999999999 L 59.20000000000002 -22.999999999999986 L 60.40000000000001 -22.999999999999986 L 60.40000000000001 -20.399999999999988 L 59.20000000000002 -20.399999999999988 L 59.20000000000002 -17.799999999999986 L 55.90000000000001 -17.799999999999986 L 55.90000000000001 -20.399999999999988 L 54.70000000000002 -20.399999999999988 L 54.70000000000002 -22.99999999999999 L 55.90000000000001 -22.99999999999999 L 55.90000000000001 -26.99999999999999 L 51.20000000000002 -26.999999999999993 L 51.20000000000002 -29.999999999999993 L 45.00000000000001 -29.999999999999993 L 44.99999999999999 55.00000000000003 L 57.0 55.00000000000003 L 56.99999999999999 77.00000000000003 L 44.999999999999986 77.00000000000003 " stroke="#000000" stroke-width="0.35 px" style="stroke-width:0.35;stroke-miterlimit:4;stroke-dasharray:none;stroke-linecap:square;fill:none;fill-opacity:1;fill-rule: evenodd"/>
<title>b'Sketch019'</title>
</g>
</svg>