<?xml version="1.0"?>
<!DOCTYPE svg PUBLIC "-//W3C//DTD SVG 1.1//EN" "http://www.w3.org/Graphics/SVG/1.1/DTD/svg11.dtd">
<svg width="30.600000000000044mm" height="208.60000000000002mm" viewBox="0 0 30.600000000000044 208.60000000000002" xmlns="http://www.w3.org/2000/svg" version="1.1">
<g id="Sketch020" transform="translate(26.000000,198.300000) scale(1,-1)">
<path id="Sketch020_w0000"  d="M 4.299999999999997 -10.000000000000002 L 4.3 -9.547918011776344e-16 L -0.2000000000000001 4.4408920985006276e-17 L -0.19999999999999513 22.0 L 4.300000000000004 22.0 L 4.30000000000001 44.0 L -0.19999999999999032 44.0 L -0.19999999999998536 66.0 L 4.300000000000015 66.0 L 4.300000000000019 88.0 L -0.19999999999998055 88.0 L -0.1999999999999756 110.0 L 4.300000000000024 110.0 L 4.300000000000029 132.0 L -0.19999999999997078 132.0 L -0.19999999999996582 154.0 L 4.3000000000000345 154.0 L 4.300000000000039 176.0 L -0.19999999999996101 176.0 L -0.19999999999995605 198.0 L -25.699999999999957 198.0 L -25.699999999999957 189.0 L -10.699999999999957 189.0 L -10.7 -0.9999999999999977 L -25.7 -0.9999999999999943 L -25.700000000000003 -9.999999999999995 L 4.299999999999997 -10.000000000000002 " stroke="#000000" stroke-width="0.35 px" style="stroke-width:0.35;stroke-miterlimit:4;stroke-dasharray:none;stroke-linecap:square;fill:none;fill-opacity:1;fill-rule: evenodd"/>
<title>b'Bottom_side_panel'</title>
</g>
</svg>