%TF.GenerationSoftware,KiCad,Pcbnew,7.0.6*%
%TF.CreationDate,2023-07-24T15:49:13+01:00*%
%TF.ProjectId,new_board2,6e65775f-626f-4617-9264-322e6b696361,rev?*%
%TF.SameCoordinates,Original*%
%TF.FileFunction,Other,ECO1*%
%FSLAX46Y46*%
G04 Gerber Fmt 4.6, Leading zero omitted, Abs format (unit mm)*
G04 Created by KiCad (PCBNEW 7.0.6) date 2023-07-24 15:49:13*
%MOMM*%
%LPD*%
G01*
G04 APERTURE LIST*
%ADD10C,0.150000*%
G04 APERTURE END LIST*
D10*
X171871429Y-34433390D02*
X171776191Y-34385771D01*
X171776191Y-34385771D02*
X171728572Y-34338152D01*
X171728572Y-34338152D02*
X171680953Y-34242914D01*
X171680953Y-34242914D02*
X171680953Y-34195295D01*
X171680953Y-34195295D02*
X171728572Y-34100057D01*
X171728572Y-34100057D02*
X171776191Y-34052438D01*
X171776191Y-34052438D02*
X171871429Y-34004819D01*
X171871429Y-34004819D02*
X172061905Y-34004819D01*
X172061905Y-34004819D02*
X172157143Y-34052438D01*
X172157143Y-34052438D02*
X172204762Y-34100057D01*
X172204762Y-34100057D02*
X172252381Y-34195295D01*
X172252381Y-34195295D02*
X172252381Y-34242914D01*
X172252381Y-34242914D02*
X172204762Y-34338152D01*
X172204762Y-34338152D02*
X172157143Y-34385771D01*
X172157143Y-34385771D02*
X172061905Y-34433390D01*
X172061905Y-34433390D02*
X171871429Y-34433390D01*
X171871429Y-34433390D02*
X171776191Y-34481009D01*
X171776191Y-34481009D02*
X171728572Y-34528628D01*
X171728572Y-34528628D02*
X171680953Y-34623866D01*
X171680953Y-34623866D02*
X171680953Y-34814342D01*
X171680953Y-34814342D02*
X171728572Y-34909580D01*
X171728572Y-34909580D02*
X171776191Y-34957200D01*
X171776191Y-34957200D02*
X171871429Y-35004819D01*
X171871429Y-35004819D02*
X172061905Y-35004819D01*
X172061905Y-35004819D02*
X172157143Y-34957200D01*
X172157143Y-34957200D02*
X172204762Y-34909580D01*
X172204762Y-34909580D02*
X172252381Y-34814342D01*
X172252381Y-34814342D02*
X172252381Y-34623866D01*
X172252381Y-34623866D02*
X172204762Y-34528628D01*
X172204762Y-34528628D02*
X172157143Y-34481009D01*
X172157143Y-34481009D02*
X172061905Y-34433390D01*
X172871429Y-34004819D02*
X172966667Y-34004819D01*
X172966667Y-34004819D02*
X173061905Y-34052438D01*
X173061905Y-34052438D02*
X173109524Y-34100057D01*
X173109524Y-34100057D02*
X173157143Y-34195295D01*
X173157143Y-34195295D02*
X173204762Y-34385771D01*
X173204762Y-34385771D02*
X173204762Y-34623866D01*
X173204762Y-34623866D02*
X173157143Y-34814342D01*
X173157143Y-34814342D02*
X173109524Y-34909580D01*
X173109524Y-34909580D02*
X173061905Y-34957200D01*
X173061905Y-34957200D02*
X172966667Y-35004819D01*
X172966667Y-35004819D02*
X172871429Y-35004819D01*
X172871429Y-35004819D02*
X172776191Y-34957200D01*
X172776191Y-34957200D02*
X172728572Y-34909580D01*
X172728572Y-34909580D02*
X172680953Y-34814342D01*
X172680953Y-34814342D02*
X172633334Y-34623866D01*
X172633334Y-34623866D02*
X172633334Y-34385771D01*
X172633334Y-34385771D02*
X172680953Y-34195295D01*
X172680953Y-34195295D02*
X172728572Y-34100057D01*
X172728572Y-34100057D02*
X172776191Y-34052438D01*
X172776191Y-34052438D02*
X172871429Y-34004819D01*
X173633334Y-34909580D02*
X173680953Y-34957200D01*
X173680953Y-34957200D02*
X173633334Y-35004819D01*
X173633334Y-35004819D02*
X173585715Y-34957200D01*
X173585715Y-34957200D02*
X173633334Y-34909580D01*
X173633334Y-34909580D02*
X173633334Y-35004819D01*
X174300000Y-34004819D02*
X174395238Y-34004819D01*
X174395238Y-34004819D02*
X174490476Y-34052438D01*
X174490476Y-34052438D02*
X174538095Y-34100057D01*
X174538095Y-34100057D02*
X174585714Y-34195295D01*
X174585714Y-34195295D02*
X174633333Y-34385771D01*
X174633333Y-34385771D02*
X174633333Y-34623866D01*
X174633333Y-34623866D02*
X174585714Y-34814342D01*
X174585714Y-34814342D02*
X174538095Y-34909580D01*
X174538095Y-34909580D02*
X174490476Y-34957200D01*
X174490476Y-34957200D02*
X174395238Y-35004819D01*
X174395238Y-35004819D02*
X174300000Y-35004819D01*
X174300000Y-35004819D02*
X174204762Y-34957200D01*
X174204762Y-34957200D02*
X174157143Y-34909580D01*
X174157143Y-34909580D02*
X174109524Y-34814342D01*
X174109524Y-34814342D02*
X174061905Y-34623866D01*
X174061905Y-34623866D02*
X174061905Y-34385771D01*
X174061905Y-34385771D02*
X174109524Y-34195295D01*
X174109524Y-34195295D02*
X174157143Y-34100057D01*
X174157143Y-34100057D02*
X174204762Y-34052438D01*
X174204762Y-34052438D02*
X174300000Y-34004819D01*
X175252381Y-34004819D02*
X175347619Y-34004819D01*
X175347619Y-34004819D02*
X175442857Y-34052438D01*
X175442857Y-34052438D02*
X175490476Y-34100057D01*
X175490476Y-34100057D02*
X175538095Y-34195295D01*
X175538095Y-34195295D02*
X175585714Y-34385771D01*
X175585714Y-34385771D02*
X175585714Y-34623866D01*
X175585714Y-34623866D02*
X175538095Y-34814342D01*
X175538095Y-34814342D02*
X175490476Y-34909580D01*
X175490476Y-34909580D02*
X175442857Y-34957200D01*
X175442857Y-34957200D02*
X175347619Y-35004819D01*
X175347619Y-35004819D02*
X175252381Y-35004819D01*
X175252381Y-35004819D02*
X175157143Y-34957200D01*
X175157143Y-34957200D02*
X175109524Y-34909580D01*
X175109524Y-34909580D02*
X175061905Y-34814342D01*
X175061905Y-34814342D02*
X175014286Y-34623866D01*
X175014286Y-34623866D02*
X175014286Y-34385771D01*
X175014286Y-34385771D02*
X175061905Y-34195295D01*
X175061905Y-34195295D02*
X175109524Y-34100057D01*
X175109524Y-34100057D02*
X175157143Y-34052438D01*
X175157143Y-34052438D02*
X175252381Y-34004819D01*
X176204762Y-34004819D02*
X176300000Y-34004819D01*
X176300000Y-34004819D02*
X176395238Y-34052438D01*
X176395238Y-34052438D02*
X176442857Y-34100057D01*
X176442857Y-34100057D02*
X176490476Y-34195295D01*
X176490476Y-34195295D02*
X176538095Y-34385771D01*
X176538095Y-34385771D02*
X176538095Y-34623866D01*
X176538095Y-34623866D02*
X176490476Y-34814342D01*
X176490476Y-34814342D02*
X176442857Y-34909580D01*
X176442857Y-34909580D02*
X176395238Y-34957200D01*
X176395238Y-34957200D02*
X176300000Y-35004819D01*
X176300000Y-35004819D02*
X176204762Y-35004819D01*
X176204762Y-35004819D02*
X176109524Y-34957200D01*
X176109524Y-34957200D02*
X176061905Y-34909580D01*
X176061905Y-34909580D02*
X176014286Y-34814342D01*
X176014286Y-34814342D02*
X175966667Y-34623866D01*
X175966667Y-34623866D02*
X175966667Y-34385771D01*
X175966667Y-34385771D02*
X176014286Y-34195295D01*
X176014286Y-34195295D02*
X176061905Y-34100057D01*
X176061905Y-34100057D02*
X176109524Y-34052438D01*
X176109524Y-34052438D02*
X176204762Y-34004819D01*
X177157143Y-34004819D02*
X177252381Y-34004819D01*
X177252381Y-34004819D02*
X177347619Y-34052438D01*
X177347619Y-34052438D02*
X177395238Y-34100057D01*
X177395238Y-34100057D02*
X177442857Y-34195295D01*
X177442857Y-34195295D02*
X177490476Y-34385771D01*
X177490476Y-34385771D02*
X177490476Y-34623866D01*
X177490476Y-34623866D02*
X177442857Y-34814342D01*
X177442857Y-34814342D02*
X177395238Y-34909580D01*
X177395238Y-34909580D02*
X177347619Y-34957200D01*
X177347619Y-34957200D02*
X177252381Y-35004819D01*
X177252381Y-35004819D02*
X177157143Y-35004819D01*
X177157143Y-35004819D02*
X177061905Y-34957200D01*
X177061905Y-34957200D02*
X177014286Y-34909580D01*
X177014286Y-34909580D02*
X176966667Y-34814342D01*
X176966667Y-34814342D02*
X176919048Y-34623866D01*
X176919048Y-34623866D02*
X176919048Y-34385771D01*
X176919048Y-34385771D02*
X176966667Y-34195295D01*
X176966667Y-34195295D02*
X177014286Y-34100057D01*
X177014286Y-34100057D02*
X177061905Y-34052438D01*
X177061905Y-34052438D02*
X177157143Y-34004819D01*
X178680953Y-35004819D02*
X178680953Y-34338152D01*
X178680953Y-34433390D02*
X178728572Y-34385771D01*
X178728572Y-34385771D02*
X178823810Y-34338152D01*
X178823810Y-34338152D02*
X178966667Y-34338152D01*
X178966667Y-34338152D02*
X179061905Y-34385771D01*
X179061905Y-34385771D02*
X179109524Y-34481009D01*
X179109524Y-34481009D02*
X179109524Y-35004819D01*
X179109524Y-34481009D02*
X179157143Y-34385771D01*
X179157143Y-34385771D02*
X179252381Y-34338152D01*
X179252381Y-34338152D02*
X179395238Y-34338152D01*
X179395238Y-34338152D02*
X179490477Y-34385771D01*
X179490477Y-34385771D02*
X179538096Y-34481009D01*
X179538096Y-34481009D02*
X179538096Y-35004819D01*
X180014286Y-35004819D02*
X180014286Y-34338152D01*
X180014286Y-34433390D02*
X180061905Y-34385771D01*
X180061905Y-34385771D02*
X180157143Y-34338152D01*
X180157143Y-34338152D02*
X180300000Y-34338152D01*
X180300000Y-34338152D02*
X180395238Y-34385771D01*
X180395238Y-34385771D02*
X180442857Y-34481009D01*
X180442857Y-34481009D02*
X180442857Y-35004819D01*
X180442857Y-34481009D02*
X180490476Y-34385771D01*
X180490476Y-34385771D02*
X180585714Y-34338152D01*
X180585714Y-34338152D02*
X180728571Y-34338152D01*
X180728571Y-34338152D02*
X180823810Y-34385771D01*
X180823810Y-34385771D02*
X180871429Y-34481009D01*
X180871429Y-34481009D02*
X180871429Y-35004819D01*
X216300000Y-40700000D02*
X216300000Y-35113580D01*
X136300000Y-40700000D02*
X136300000Y-35113580D01*
X216300000Y-35700000D02*
X136300000Y-35700000D01*
X216300000Y-35700000D02*
X136300000Y-35700000D01*
X216300000Y-35700000D02*
X215173496Y-36286421D01*
X216300000Y-35700000D02*
X215173496Y-35113579D01*
X136300000Y-35700000D02*
X137426504Y-35113579D01*
X136300000Y-35700000D02*
X137426504Y-36286421D01*
X169380953Y-37100058D02*
X169428572Y-37052439D01*
X169428572Y-37052439D02*
X169523810Y-37004820D01*
X169523810Y-37004820D02*
X169761905Y-37004820D01*
X169761905Y-37004820D02*
X169857143Y-37052439D01*
X169857143Y-37052439D02*
X169904762Y-37100058D01*
X169904762Y-37100058D02*
X169952381Y-37195296D01*
X169952381Y-37195296D02*
X169952381Y-37290534D01*
X169952381Y-37290534D02*
X169904762Y-37433391D01*
X169904762Y-37433391D02*
X169333334Y-38004820D01*
X169333334Y-38004820D02*
X169952381Y-38004820D01*
X170523810Y-37433391D02*
X170428572Y-37385772D01*
X170428572Y-37385772D02*
X170380953Y-37338153D01*
X170380953Y-37338153D02*
X170333334Y-37242915D01*
X170333334Y-37242915D02*
X170333334Y-37195296D01*
X170333334Y-37195296D02*
X170380953Y-37100058D01*
X170380953Y-37100058D02*
X170428572Y-37052439D01*
X170428572Y-37052439D02*
X170523810Y-37004820D01*
X170523810Y-37004820D02*
X170714286Y-37004820D01*
X170714286Y-37004820D02*
X170809524Y-37052439D01*
X170809524Y-37052439D02*
X170857143Y-37100058D01*
X170857143Y-37100058D02*
X170904762Y-37195296D01*
X170904762Y-37195296D02*
X170904762Y-37242915D01*
X170904762Y-37242915D02*
X170857143Y-37338153D01*
X170857143Y-37338153D02*
X170809524Y-37385772D01*
X170809524Y-37385772D02*
X170714286Y-37433391D01*
X170714286Y-37433391D02*
X170523810Y-37433391D01*
X170523810Y-37433391D02*
X170428572Y-37481010D01*
X170428572Y-37481010D02*
X170380953Y-37528629D01*
X170380953Y-37528629D02*
X170333334Y-37623867D01*
X170333334Y-37623867D02*
X170333334Y-37814343D01*
X170333334Y-37814343D02*
X170380953Y-37909581D01*
X170380953Y-37909581D02*
X170428572Y-37957201D01*
X170428572Y-37957201D02*
X170523810Y-38004820D01*
X170523810Y-38004820D02*
X170714286Y-38004820D01*
X170714286Y-38004820D02*
X170809524Y-37957201D01*
X170809524Y-37957201D02*
X170857143Y-37909581D01*
X170857143Y-37909581D02*
X170904762Y-37814343D01*
X170904762Y-37814343D02*
X170904762Y-37623867D01*
X170904762Y-37623867D02*
X170857143Y-37528629D01*
X170857143Y-37528629D02*
X170809524Y-37481010D01*
X170809524Y-37481010D02*
X170714286Y-37433391D01*
X171333334Y-37909581D02*
X171380953Y-37957201D01*
X171380953Y-37957201D02*
X171333334Y-38004820D01*
X171333334Y-38004820D02*
X171285715Y-37957201D01*
X171285715Y-37957201D02*
X171333334Y-37909581D01*
X171333334Y-37909581D02*
X171333334Y-38004820D01*
X172238095Y-37338153D02*
X172238095Y-38004820D01*
X172000000Y-36957201D02*
X171761905Y-37671486D01*
X171761905Y-37671486D02*
X172380952Y-37671486D01*
X172952381Y-37004820D02*
X173047619Y-37004820D01*
X173047619Y-37004820D02*
X173142857Y-37052439D01*
X173142857Y-37052439D02*
X173190476Y-37100058D01*
X173190476Y-37100058D02*
X173238095Y-37195296D01*
X173238095Y-37195296D02*
X173285714Y-37385772D01*
X173285714Y-37385772D02*
X173285714Y-37623867D01*
X173285714Y-37623867D02*
X173238095Y-37814343D01*
X173238095Y-37814343D02*
X173190476Y-37909581D01*
X173190476Y-37909581D02*
X173142857Y-37957201D01*
X173142857Y-37957201D02*
X173047619Y-38004820D01*
X173047619Y-38004820D02*
X172952381Y-38004820D01*
X172952381Y-38004820D02*
X172857143Y-37957201D01*
X172857143Y-37957201D02*
X172809524Y-37909581D01*
X172809524Y-37909581D02*
X172761905Y-37814343D01*
X172761905Y-37814343D02*
X172714286Y-37623867D01*
X172714286Y-37623867D02*
X172714286Y-37385772D01*
X172714286Y-37385772D02*
X172761905Y-37195296D01*
X172761905Y-37195296D02*
X172809524Y-37100058D01*
X172809524Y-37100058D02*
X172857143Y-37052439D01*
X172857143Y-37052439D02*
X172952381Y-37004820D01*
X173904762Y-37004820D02*
X174000000Y-37004820D01*
X174000000Y-37004820D02*
X174095238Y-37052439D01*
X174095238Y-37052439D02*
X174142857Y-37100058D01*
X174142857Y-37100058D02*
X174190476Y-37195296D01*
X174190476Y-37195296D02*
X174238095Y-37385772D01*
X174238095Y-37385772D02*
X174238095Y-37623867D01*
X174238095Y-37623867D02*
X174190476Y-37814343D01*
X174190476Y-37814343D02*
X174142857Y-37909581D01*
X174142857Y-37909581D02*
X174095238Y-37957201D01*
X174095238Y-37957201D02*
X174000000Y-38004820D01*
X174000000Y-38004820D02*
X173904762Y-38004820D01*
X173904762Y-38004820D02*
X173809524Y-37957201D01*
X173809524Y-37957201D02*
X173761905Y-37909581D01*
X173761905Y-37909581D02*
X173714286Y-37814343D01*
X173714286Y-37814343D02*
X173666667Y-37623867D01*
X173666667Y-37623867D02*
X173666667Y-37385772D01*
X173666667Y-37385772D02*
X173714286Y-37195296D01*
X173714286Y-37195296D02*
X173761905Y-37100058D01*
X173761905Y-37100058D02*
X173809524Y-37052439D01*
X173809524Y-37052439D02*
X173904762Y-37004820D01*
X174857143Y-37004820D02*
X174952381Y-37004820D01*
X174952381Y-37004820D02*
X175047619Y-37052439D01*
X175047619Y-37052439D02*
X175095238Y-37100058D01*
X175095238Y-37100058D02*
X175142857Y-37195296D01*
X175142857Y-37195296D02*
X175190476Y-37385772D01*
X175190476Y-37385772D02*
X175190476Y-37623867D01*
X175190476Y-37623867D02*
X175142857Y-37814343D01*
X175142857Y-37814343D02*
X175095238Y-37909581D01*
X175095238Y-37909581D02*
X175047619Y-37957201D01*
X175047619Y-37957201D02*
X174952381Y-38004820D01*
X174952381Y-38004820D02*
X174857143Y-38004820D01*
X174857143Y-38004820D02*
X174761905Y-37957201D01*
X174761905Y-37957201D02*
X174714286Y-37909581D01*
X174714286Y-37909581D02*
X174666667Y-37814343D01*
X174666667Y-37814343D02*
X174619048Y-37623867D01*
X174619048Y-37623867D02*
X174619048Y-37385772D01*
X174619048Y-37385772D02*
X174666667Y-37195296D01*
X174666667Y-37195296D02*
X174714286Y-37100058D01*
X174714286Y-37100058D02*
X174761905Y-37052439D01*
X174761905Y-37052439D02*
X174857143Y-37004820D01*
X176380953Y-38004820D02*
X176380953Y-37338153D01*
X176380953Y-37433391D02*
X176428572Y-37385772D01*
X176428572Y-37385772D02*
X176523810Y-37338153D01*
X176523810Y-37338153D02*
X176666667Y-37338153D01*
X176666667Y-37338153D02*
X176761905Y-37385772D01*
X176761905Y-37385772D02*
X176809524Y-37481010D01*
X176809524Y-37481010D02*
X176809524Y-38004820D01*
X176809524Y-37481010D02*
X176857143Y-37385772D01*
X176857143Y-37385772D02*
X176952381Y-37338153D01*
X176952381Y-37338153D02*
X177095238Y-37338153D01*
X177095238Y-37338153D02*
X177190477Y-37385772D01*
X177190477Y-37385772D02*
X177238096Y-37481010D01*
X177238096Y-37481010D02*
X177238096Y-38004820D01*
X177714286Y-38004820D02*
X177714286Y-37338153D01*
X177714286Y-37433391D02*
X177761905Y-37385772D01*
X177761905Y-37385772D02*
X177857143Y-37338153D01*
X177857143Y-37338153D02*
X178000000Y-37338153D01*
X178000000Y-37338153D02*
X178095238Y-37385772D01*
X178095238Y-37385772D02*
X178142857Y-37481010D01*
X178142857Y-37481010D02*
X178142857Y-38004820D01*
X178142857Y-37481010D02*
X178190476Y-37385772D01*
X178190476Y-37385772D02*
X178285714Y-37338153D01*
X178285714Y-37338153D02*
X178428571Y-37338153D01*
X178428571Y-37338153D02*
X178523810Y-37385772D01*
X178523810Y-37385772D02*
X178571429Y-37481010D01*
X178571429Y-37481010D02*
X178571429Y-38004820D01*
X159800000Y-42560000D02*
X159800000Y-38113581D01*
X188200000Y-42560000D02*
X188200000Y-38113581D01*
X159800000Y-38700001D02*
X188200000Y-38700001D01*
X159800000Y-38700001D02*
X188200000Y-38700001D01*
X159800000Y-38700001D02*
X160926504Y-38113580D01*
X159800000Y-38700001D02*
X160926504Y-39286422D01*
X188200000Y-38700001D02*
X187073496Y-39286422D01*
X188200000Y-38700001D02*
X187073496Y-38113580D01*
X240741659Y-100507236D02*
X240741215Y-99935808D01*
X240741437Y-100221522D02*
X241741436Y-100220745D01*
X241741436Y-100220745D02*
X241598505Y-100125618D01*
X241598505Y-100125618D02*
X241503193Y-100030454D01*
X241503193Y-100030454D02*
X241455500Y-99935253D01*
X241646716Y-100887485D02*
X241694372Y-100935067D01*
X241694372Y-100935067D02*
X241742065Y-101030268D01*
X241742065Y-101030268D02*
X241742250Y-101268364D01*
X241742250Y-101268364D02*
X241694705Y-101363639D01*
X241694705Y-101363639D02*
X241647123Y-101411295D01*
X241647123Y-101411295D02*
X241551922Y-101458988D01*
X241551922Y-101458988D02*
X241456684Y-101459062D01*
X241456684Y-101459062D02*
X241313790Y-101411554D01*
X241313790Y-101411554D02*
X240741918Y-100840569D01*
X240741918Y-100840569D02*
X240742399Y-101459617D01*
X241314271Y-102030601D02*
X241361816Y-101935326D01*
X241361816Y-101935326D02*
X241409398Y-101887670D01*
X241409398Y-101887670D02*
X241504599Y-101839977D01*
X241504599Y-101839977D02*
X241552218Y-101839940D01*
X241552218Y-101839940D02*
X241647493Y-101887485D01*
X241647493Y-101887485D02*
X241695149Y-101935067D01*
X241695149Y-101935067D02*
X241742842Y-102030268D01*
X241742842Y-102030268D02*
X241742990Y-102220744D01*
X241742990Y-102220744D02*
X241695445Y-102316019D01*
X241695445Y-102316019D02*
X241647863Y-102363675D01*
X241647863Y-102363675D02*
X241552662Y-102411368D01*
X241552662Y-102411368D02*
X241505043Y-102411405D01*
X241505043Y-102411405D02*
X241409768Y-102363860D01*
X241409768Y-102363860D02*
X241362112Y-102316278D01*
X241362112Y-102316278D02*
X241314419Y-102221077D01*
X241314419Y-102221077D02*
X241314271Y-102030601D01*
X241314271Y-102030601D02*
X241266578Y-101935400D01*
X241266578Y-101935400D02*
X241218922Y-101887818D01*
X241218922Y-101887818D02*
X241123647Y-101840273D01*
X241123647Y-101840273D02*
X240933171Y-101840421D01*
X240933171Y-101840421D02*
X240837970Y-101888114D01*
X240837970Y-101888114D02*
X240790388Y-101935770D01*
X240790388Y-101935770D02*
X240742843Y-102031045D01*
X240742843Y-102031045D02*
X240742991Y-102221521D01*
X240742991Y-102221521D02*
X240790684Y-102316722D01*
X240790684Y-102316722D02*
X240838340Y-102364304D01*
X240838340Y-102364304D02*
X240933615Y-102411849D01*
X240933615Y-102411849D02*
X241124091Y-102411701D01*
X241124091Y-102411701D02*
X241219292Y-102364008D01*
X241219292Y-102364008D02*
X241266874Y-102316352D01*
X241266874Y-102316352D02*
X241314419Y-102221077D01*
X240838710Y-102840495D02*
X240791128Y-102888151D01*
X240791128Y-102888151D02*
X240743472Y-102840569D01*
X240743472Y-102840569D02*
X240791054Y-102792913D01*
X240791054Y-102792913D02*
X240838710Y-102840495D01*
X240838710Y-102840495D02*
X240743472Y-102840569D01*
X241743767Y-103220744D02*
X241744285Y-103887410D01*
X241744285Y-103887410D02*
X240743953Y-103459616D01*
X241744729Y-104458838D02*
X241744803Y-104554077D01*
X241744803Y-104554077D02*
X241697258Y-104649352D01*
X241697258Y-104649352D02*
X241649676Y-104697008D01*
X241649676Y-104697008D02*
X241554475Y-104744701D01*
X241554475Y-104744701D02*
X241364036Y-104792468D01*
X241364036Y-104792468D02*
X241125941Y-104792653D01*
X241125941Y-104792653D02*
X240935428Y-104745182D01*
X240935428Y-104745182D02*
X240840153Y-104697637D01*
X240840153Y-104697637D02*
X240792497Y-104650055D01*
X240792497Y-104650055D02*
X240744804Y-104554854D01*
X240744804Y-104554854D02*
X240744730Y-104459615D01*
X240744730Y-104459615D02*
X240792275Y-104364340D01*
X240792275Y-104364340D02*
X240839857Y-104316684D01*
X240839857Y-104316684D02*
X240935058Y-104268991D01*
X240935058Y-104268991D02*
X241125497Y-104221224D01*
X241125497Y-104221224D02*
X241363592Y-104221039D01*
X241363592Y-104221039D02*
X241554105Y-104268510D01*
X241554105Y-104268510D02*
X241649380Y-104316055D01*
X241649380Y-104316055D02*
X241697036Y-104363637D01*
X241697036Y-104363637D02*
X241744729Y-104458838D01*
X241745469Y-105411219D02*
X241745543Y-105506457D01*
X241745543Y-105506457D02*
X241697998Y-105601732D01*
X241697998Y-105601732D02*
X241650416Y-105649388D01*
X241650416Y-105649388D02*
X241555215Y-105697081D01*
X241555215Y-105697081D02*
X241364776Y-105744848D01*
X241364776Y-105744848D02*
X241126681Y-105745033D01*
X241126681Y-105745033D02*
X240936168Y-105697562D01*
X240936168Y-105697562D02*
X240840893Y-105650017D01*
X240840893Y-105650017D02*
X240793237Y-105602435D01*
X240793237Y-105602435D02*
X240745544Y-105507234D01*
X240745544Y-105507234D02*
X240745470Y-105411996D01*
X240745470Y-105411996D02*
X240793015Y-105316721D01*
X240793015Y-105316721D02*
X240840597Y-105269065D01*
X240840597Y-105269065D02*
X240935798Y-105221372D01*
X240935798Y-105221372D02*
X241126237Y-105173605D01*
X241126237Y-105173605D02*
X241364332Y-105173420D01*
X241364332Y-105173420D02*
X241554845Y-105220891D01*
X241554845Y-105220891D02*
X241650120Y-105268436D01*
X241650120Y-105268436D02*
X241697776Y-105316018D01*
X241697776Y-105316018D02*
X241745469Y-105411219D01*
X241746209Y-106363600D02*
X241746283Y-106458838D01*
X241746283Y-106458838D02*
X241698738Y-106554113D01*
X241698738Y-106554113D02*
X241651156Y-106601769D01*
X241651156Y-106601769D02*
X241555955Y-106649462D01*
X241555955Y-106649462D02*
X241365516Y-106697229D01*
X241365516Y-106697229D02*
X241127421Y-106697414D01*
X241127421Y-106697414D02*
X240936908Y-106649943D01*
X240936908Y-106649943D02*
X240841633Y-106602398D01*
X240841633Y-106602398D02*
X240793977Y-106554816D01*
X240793977Y-106554816D02*
X240746284Y-106459615D01*
X240746284Y-106459615D02*
X240746210Y-106364377D01*
X240746210Y-106364377D02*
X240793755Y-106269102D01*
X240793755Y-106269102D02*
X240841337Y-106221446D01*
X240841337Y-106221446D02*
X240936538Y-106173753D01*
X240936538Y-106173753D02*
X241126977Y-106125986D01*
X241126977Y-106125986D02*
X241365072Y-106125801D01*
X241365072Y-106125801D02*
X241555585Y-106173272D01*
X241555585Y-106173272D02*
X241650860Y-106220817D01*
X241650860Y-106220817D02*
X241698516Y-106268399D01*
X241698516Y-106268399D02*
X241746209Y-106363600D01*
X240747394Y-107888186D02*
X241414060Y-107887668D01*
X241318822Y-107887742D02*
X241366478Y-107935324D01*
X241366478Y-107935324D02*
X241414171Y-108030525D01*
X241414171Y-108030525D02*
X241414282Y-108173382D01*
X241414282Y-108173382D02*
X241366737Y-108268658D01*
X241366737Y-108268658D02*
X241271536Y-108316351D01*
X241271536Y-108316351D02*
X240747727Y-108316758D01*
X241271536Y-108316351D02*
X241366811Y-108363896D01*
X241366811Y-108363896D02*
X241414504Y-108459097D01*
X241414504Y-108459097D02*
X241414615Y-108601954D01*
X241414615Y-108601954D02*
X241367070Y-108697229D01*
X241367070Y-108697229D02*
X241271869Y-108744922D01*
X241271869Y-108744922D02*
X240748060Y-108745329D01*
X240748430Y-109221519D02*
X241415096Y-109221001D01*
X241319858Y-109221075D02*
X241367514Y-109268657D01*
X241367514Y-109268657D02*
X241415207Y-109363858D01*
X241415207Y-109363858D02*
X241415318Y-109506715D01*
X241415318Y-109506715D02*
X241367773Y-109601990D01*
X241367773Y-109601990D02*
X241272572Y-109649683D01*
X241272572Y-109649683D02*
X240748763Y-109650090D01*
X241272572Y-109649683D02*
X241367847Y-109697228D01*
X241367847Y-109697228D02*
X241415540Y-109792429D01*
X241415540Y-109792429D02*
X241415651Y-109935286D01*
X241415651Y-109935286D02*
X241368106Y-110030561D01*
X241368106Y-110030561D02*
X241272905Y-110078254D01*
X241272905Y-110078254D02*
X240749096Y-110078661D01*
X216800000Y-40699612D02*
X240586413Y-40681130D01*
X216900000Y-169399612D02*
X240686413Y-169381130D01*
X239999993Y-40681585D02*
X240099993Y-169381585D01*
X239999993Y-40681585D02*
X240099993Y-169381585D01*
X239999993Y-40681585D02*
X240587289Y-41807633D01*
X239999993Y-40681585D02*
X239414448Y-41808544D01*
X240099993Y-169381585D02*
X239512697Y-168255537D01*
X240099993Y-169381585D02*
X240685538Y-168254626D01*
M02*
