M48
; DRILL file {KiCad 7.0.6} date Mon Jul 24 15:49:17 2023
; FORMAT={-:-/ absolute / inch / decimal}
; #@! TF.CreationDate,2023-07-24T15:49:17+01:00
; #@! TF.GenerationSoftware,Kicad,Pcbnew,7.0.6
; #@! TF.FileFunction,Plated,1,2,PTH
FMAT,2
INCH
; #@! TA.AperFunction,Plated,PTH,ComponentDrill
T1C0.0315
; #@! TA.AperFunction,Plated,PTH,ComponentDrill
T2C0.0354
; #@! TA.AperFunction,Plated,PTH,ComponentDrill
T3C0.0374
; #@! TA.AperFunction,Plated,PTH,ComponentDrill
T4C0.0394
; #@! TA.AperFunction,Plated,PTH,ComponentDrill
T5C0.0409
; #@! TA.AperFunction,Plated,PTH,ComponentDrill
T6C0.0433
; #@! TA.AperFunction,Plated,PTH,ComponentDrill
T7C0.0512
; #@! TA.AperFunction,Plated,PTH,ComponentDrill
T8C0.0630
%
G90
G05
T1
X7.0236Y-4.315
X7.0236Y-4.4646
T2
X6.1929Y-1.7264
X6.1929Y-1.8264
T3
X5.5512Y-2.0669
X5.5512Y-2.1654
X5.5512Y-2.2638
X5.5512Y-2.3622
X5.5512Y-2.4606
X5.5512Y-2.5591
X5.5512Y-2.6575
X5.5512Y-2.7559
X5.5512Y-2.8543
X5.5512Y-2.9528
X5.5512Y-3.0512
X5.5512Y-3.1496
X5.5512Y-3.248
X5.5512Y-3.3465
X5.5512Y-4.5079
X5.5512Y-4.6063
X5.5512Y-4.7047
X5.5512Y-4.8031
X5.5512Y-4.9016
X5.5512Y-5.0
X5.5512Y-5.0984
X5.5512Y-5.1969
X5.5512Y-5.2953
X5.5512Y-5.3937
X5.5512Y-5.4921
X5.5512Y-5.5906
X5.5512Y-5.689
X5.5512Y-5.7874
X6.6181Y-6.1024
X6.7165Y-6.1024
X6.815Y-6.1024
X6.9134Y-6.1024
X7.1772Y-6.1024
X7.2756Y-6.1024
X7.374Y-6.1024
X7.4724Y-6.1024
X7.7402Y-6.1024
X7.8386Y-6.1024
X7.937Y-6.1024
X8.0354Y-6.1024
X8.3307Y-3.3307
X8.3307Y-3.4291
X8.3307Y-3.5276
X8.3307Y-3.626
X8.3386Y-2.1516
X8.3386Y-2.25
X8.3386Y-2.3484
X8.3386Y-2.4469
X8.3386Y-2.7421
X8.3386Y-2.8406
X8.3386Y-2.939
X8.3386Y-3.0374
X8.3386Y-5.685
X8.3386Y-5.7835
X8.3386Y-5.8819
X8.3386Y-5.9803
X8.3425Y-3.939
X8.3425Y-4.0374
X8.3425Y-4.1358
X8.3425Y-4.2343
X8.3425Y-4.5295
X8.3425Y-4.628
X8.3425Y-4.7264
X8.3425Y-4.8248
X8.3425Y-5.1201
X8.3425Y-5.2185
X8.3425Y-5.3169
X8.3425Y-5.4154
T4
X5.8031Y-2.5748
X5.8031Y-2.7638
X5.8031Y-2.9606
X5.8031Y-3.1496
X5.8031Y-6.0984
X5.8071Y-3.3465
X5.811Y-1.9921
X5.811Y-2.189
X5.811Y-2.3858
X5.811Y-3.937
X5.811Y-4.126
X5.8157Y-4.79
X5.8189Y-4.4075
X5.8189Y-5.1595
X5.8209Y-4.6
X5.8209Y-4.98
X5.8209Y-5.5365
X5.8228Y-5.3465
X5.9016Y-6.0984
X6.1575Y-2.5748
X6.1575Y-2.7638
X6.1575Y-2.9606
X6.1575Y-3.1496
X6.1614Y-3.3465
X6.1654Y-1.9921
X6.1654Y-2.189
X6.1654Y-2.3858
X6.1654Y-3.937
X6.1654Y-4.126
X6.1693Y-6.0965
X6.17Y-4.79
X6.1732Y-4.4075
X6.1732Y-5.1595
X6.1752Y-4.6
X6.1752Y-4.98
X6.1752Y-5.5365
X6.1772Y-5.3465
X6.2677Y-6.0965
X6.5827Y-5.7031
X6.5827Y-5.8031
X7.0315Y-4.7402
X7.0315Y-4.937
X7.2441Y-5.8268
X7.3441Y-5.8268
X7.8937Y-5.8268
X7.9937Y-5.8268
X8.0108Y-5.087
X8.0108Y-5.187
X8.0108Y-5.5004
X8.0108Y-5.6004
X8.0118Y-4.5079
X8.0118Y-4.6079
X8.0305Y-3.9256
X8.0305Y-4.0256
X8.0315Y-2.1835
X8.0315Y-2.2835
X8.0315Y-2.774
X8.0315Y-2.874
X8.0315Y-3.3071
X8.0315Y-3.4071
T5
X6.3543Y-1.7303
X6.3543Y-1.8303
X6.3543Y-1.9303
X6.3543Y-2.0303
X6.3543Y-2.1303
X6.3543Y-2.2303
X6.3543Y-2.3303
X6.3543Y-2.4303
X6.3543Y-2.5303
X6.3543Y-2.6303
X6.3543Y-2.7303
X6.3543Y-2.8303
X6.3543Y-2.9303
X6.3543Y-3.0303
X6.3543Y-3.1303
X6.3543Y-3.2303
X6.3543Y-3.3303
X6.3543Y-3.4303
X6.3543Y-3.5303
X7.3543Y-1.7303
X7.3543Y-1.8303
X7.3543Y-1.9303
X7.3543Y-2.0303
X7.3543Y-2.1303
X7.3543Y-2.2303
X7.3543Y-2.3303
X7.3543Y-2.4303
X7.3543Y-2.5303
X7.3543Y-2.6303
X7.3543Y-2.7303
X7.3543Y-2.8303
X7.3543Y-2.9303
X7.3543Y-3.0303
X7.3543Y-3.1303
X7.3543Y-3.2303
X7.3543Y-3.3303
X7.3543Y-3.4303
X7.3543Y-3.5303
T6
X6.815Y-5.1752
X6.8819Y-5.3209
X6.9488Y-5.1752
X7.0157Y-5.3209
X7.0827Y-5.1752
T7
X6.6102Y-4.3169
X6.6102Y-4.5138
T8
X6.6063Y-4.7413
X6.6063Y-5.3413
T4
G00X7.5219Y-1.8366
M15
G01X7.5219Y-1.9154
M16
G05
G00X7.7464Y-1.7579
M15
G01X7.6676Y-1.7579
M16
G05
G00X7.7464Y-1.9941
M15
G01X7.6676Y-1.9941
M16
G05
T0
M30
