<?xml version="1.0"?>
<!DOCTYPE svg PUBLIC "-//W3C//DTD SVG 1.1//EN" "http://www.w3.org/Graphics/SVG/1.1/DTD/svg11.dtd">
<svg width="51.00000000000003mm" height="231.00000000000006mm" viewBox="0 0 51.00000000000003 231.00000000000006" xmlns="http://www.w3.org/2000/svg" version="1.1">
<g id="Extrude001" transform="translate(98.500000,210.500000) scale(1,-1)">
<path id="Extrude001_f0000"  d="M -66.75000000000007 210.00000000000006 L -66.75000000000006 207.00000000000006 L -66.75000000000006 207.00000000000006 L -66.75000000000007 210.00000000000006 L -66.75000000000006 210.00000000000006 Z " stroke="#000000" stroke-width="0.35 px" style="stroke-width:0.35;stroke-miterlimit:4;stroke-dasharray:none;stroke-linecap:square;fill:#d1d1d1;fill-opacity:1.0;fill-rule: evenodd"/>
<path id="Extrude001_f0001"  d="M -62.125000000000064 210.00000000000006 L -66.75000000000007 210.00000000000006 L -66.75000000000007 210.00000000000006 L -62.12500000000007 210.00000000000006 L -62.125000000000064 210.00000000000006 Z " stroke="#000000" stroke-width="0.35 px" style="stroke-width:0.35;stroke-miterlimit:4;stroke-dasharray:none;stroke-linecap:square;fill:#d1d1d1;fill-opacity:1.0;fill-rule: evenodd"/>
<path id="Extrude001_f0002"  d="M -62.125000000000064 206.75000000000006 L -62.125000000000064 210.00000000000006 L -62.125000000000064 210.00000000000006 L -62.12500000000007 206.75000000000006 L -62.125000000000064 206.75000000000006 Z " stroke="#000000" stroke-width="0.35 px" style="stroke-width:0.35;stroke-miterlimit:4;stroke-dasharray:none;stroke-linecap:square;fill:#d1d1d1;fill-opacity:1.0;fill-rule: evenodd"/>
<path id="Extrude001_f0003"  d="M -60.500000000000064 206.75000000000006 L -62.125000000000064 206.75000000000006 L -62.125000000000064 206.75000000000006 L -60.50000000000007 206.75000000000006 L -60.500000000000064 206.75000000000006 Z " stroke="#000000" stroke-width="0.35 px" style="stroke-width:0.35;stroke-miterlimit:4;stroke-dasharray:none;stroke-linecap:square;fill:#d1d1d1;fill-opacity:1.0;fill-rule: evenodd"/>
<path id="Extrude001_f0004"  d="M -58.875000000000064 206.75000000000006 L -60.500000000000064 206.75000000000006 L -60.500000000000064 206.75000000000006 L -58.87500000000007 206.75000000000006 L -58.875000000000064 206.75000000000006 Z " stroke="#000000" stroke-width="0.35 px" style="stroke-width:0.35;stroke-miterlimit:4;stroke-dasharray:none;stroke-linecap:square;fill:#d1d1d1;fill-opacity:1.0;fill-rule: evenodd"/>
<path id="Extrude001_f0005"  d="M -58.875000000000064 210.00000000000006 L -58.875000000000064 206.75000000000006 L -58.875000000000064 206.75000000000006 L -58.87500000000007 210.00000000000006 L -58.875000000000064 210.00000000000006 Z " stroke="#000000" stroke-width="0.35 px" style="stroke-width:0.35;stroke-miterlimit:4;stroke-dasharray:none;stroke-linecap:square;fill:#d1d1d1;fill-opacity:1.0;fill-rule: evenodd"/>
<path id="Extrude001_f0006"  d="M -54.250000000000064 210.00000000000006 L -58.875000000000064 210.00000000000006 L -58.875000000000064 210.00000000000006 L -54.25000000000007 210.00000000000006 L -54.250000000000064 210.00000000000006 Z " stroke="#000000" stroke-width="0.35 px" style="stroke-width:0.35;stroke-miterlimit:4;stroke-dasharray:none;stroke-linecap:square;fill:#d1d1d1;fill-opacity:1.0;fill-rule: evenodd"/>
<path id="Extrude001_f0007"  d="M -54.250000000000064 207.00000000000006 L -54.250000000000064 210.00000000000006 L -54.250000000000064 210.00000000000006 L -54.25000000000007 207.00000000000006 L -54.250000000000064 207.00000000000006 Z " stroke="#000000" stroke-width="0.35 px" style="stroke-width:0.35;stroke-miterlimit:4;stroke-dasharray:none;stroke-linecap:square;fill:#d1d1d1;fill-opacity:1.0;fill-rule: evenodd"/>
<path id="Extrude001_f0008"  d="M -48.00000000000004 207.00000000000006 L -54.250000000000064 207.00000000000006 L -54.250000000000064 207.00000000000006 L -48.00000000000004 207.00000000000006 L -48.00000000000004 207.00000000000006 Z " stroke="#000000" stroke-width="0.35 px" style="stroke-width:0.35;stroke-miterlimit:4;stroke-dasharray:none;stroke-linecap:square;fill:#d1d1d1;fill-opacity:1.0;fill-rule: evenodd"/>
<path id="Extrude001_f0009"  d="M -48.00000000000004 -16.999999999999943 L -48.00000000000004 207.00000000000006 L -48.00000000000004 207.00000000000006 L -48.00000000000004 -17.000000000000004 L -48.00000000000004 -17.000000000000004 Z " stroke="#000000" stroke-width="0.35 px" style="stroke-width:0.35;stroke-miterlimit:4;stroke-dasharray:none;stroke-linecap:square;fill:#d1d1d1;fill-opacity:1.0;fill-rule: evenodd"/>
<path id="Extrude001_f0010"  d="M -54.250000000000064 -17.000000000000004 L -48.00000000000004 -17.000000000000004 L -48.00000000000004 -17.000000000000004 L -54.25000000000007 -17.000000000000004 L -54.250000000000064 -17.000000000000004 Z " stroke="#000000" stroke-width="0.35 px" style="stroke-width:0.35;stroke-miterlimit:4;stroke-dasharray:none;stroke-linecap:square;fill:#d1d1d1;fill-opacity:1.0;fill-rule: evenodd"/>
<path id="Extrude001_f0011"  d="M -54.250000000000064 -20.000000000000004 L -54.250000000000064 -17.000000000000004 L -54.250000000000064 -17.000000000000004 L -54.25000000000007 -20.000000000000004 L -54.250000000000064 -20.000000000000004 Z " stroke="#000000" stroke-width="0.35 px" style="stroke-width:0.35;stroke-miterlimit:4;stroke-dasharray:none;stroke-linecap:square;fill:#d1d1d1;fill-opacity:1.0;fill-rule: evenodd"/>
<path id="Extrude001_f0012"  d="M -58.875000000000064 -20.000000000000004 L -54.250000000000064 -20.000000000000004 L -54.250000000000064 -20.000000000000004 L -58.87500000000007 -20.000000000000004 L -58.875000000000064 -20.000000000000004 Z " stroke="#000000" stroke-width="0.35 px" style="stroke-width:0.35;stroke-miterlimit:4;stroke-dasharray:none;stroke-linecap:square;fill:#d1d1d1;fill-opacity:1.0;fill-rule: evenodd"/>
<path id="Extrude001_f0013"  d="M -58.875000000000064 -17.000000000000004 L -58.875000000000064 -20.000000000000004 L -58.875000000000064 -20.000000000000004 L -58.87500000000007 -17.000000000000004 L -58.875000000000064 -17.000000000000004 Z " stroke="#000000" stroke-width="0.35 px" style="stroke-width:0.35;stroke-miterlimit:4;stroke-dasharray:none;stroke-linecap:square;fill:#d1d1d1;fill-opacity:1.0;fill-rule: evenodd"/>
<path id="Extrude001_f0014"  d="M -60.500000000000064 -17.000000000000004 L -58.875000000000064 -17.000000000000004 L -58.875000000000064 -17.000000000000004 L -60.50000000000007 -17.000000000000004 L -60.500000000000064 -17.000000000000004 Z " stroke="#000000" stroke-width="0.35 px" style="stroke-width:0.35;stroke-miterlimit:4;stroke-dasharray:none;stroke-linecap:square;fill:#d1d1d1;fill-opacity:1.0;fill-rule: evenodd"/>
<path id="Extrude001_f0015"  d="M -62.125000000000064 -17.000000000000004 L -60.500000000000064 -17.000000000000004 L -60.500000000000064 -17.000000000000004 L -62.12500000000007 -17.000000000000004 L -62.125000000000064 -17.000000000000004 Z " stroke="#000000" stroke-width="0.35 px" style="stroke-width:0.35;stroke-miterlimit:4;stroke-dasharray:none;stroke-linecap:square;fill:#d1d1d1;fill-opacity:1.0;fill-rule: evenodd"/>
<path id="Extrude001_f0016"  d="M -62.125000000000064 -20.000000000000004 L -62.125000000000064 -17.000000000000004 L -62.125000000000064 -17.000000000000004 L -62.12500000000007 -20.000000000000004 L -62.125000000000064 -20.000000000000004 Z " stroke="#000000" stroke-width="0.35 px" style="stroke-width:0.35;stroke-miterlimit:4;stroke-dasharray:none;stroke-linecap:square;fill:#d1d1d1;fill-opacity:1.0;fill-rule: evenodd"/>
<path id="Extrude001_f0017"  d="M -66.75000000000006 -20.000000000000004 L -62.125000000000064 -20.000000000000004 L -62.125000000000064 -20.000000000000004 L -66.75000000000006 -20.000000000000004 L -66.75000000000006 -20.000000000000004 Z " stroke="#000000" stroke-width="0.35 px" style="stroke-width:0.35;stroke-miterlimit:4;stroke-dasharray:none;stroke-linecap:square;fill:#d1d1d1;fill-opacity:1.0;fill-rule: evenodd"/>
<path id="Extrude001_f0018"  d="M -66.75000000000006 -17.000000000000004 L -66.75000000000006 -20.000000000000004 L -66.75000000000006 -20.000000000000004 L -66.75000000000006 -17.000000000000004 L -66.75000000000006 -17.000000000000004 Z " stroke="#000000" stroke-width="0.35 px" style="stroke-width:0.35;stroke-miterlimit:4;stroke-dasharray:none;stroke-linecap:square;fill:#d1d1d1;fill-opacity:1.0;fill-rule: evenodd"/>
<path id="Extrude001_f0019"  d="M -98.00000000000006 -17.000000000000004 L -66.75000000000006 -17.000000000000004 L -66.75000000000006 -17.000000000000004 L -98.00000000000006 -17.000000000000004 L -98.00000000000006 -17.000000000000004 Z " stroke="#000000" stroke-width="0.35 px" style="stroke-width:0.35;stroke-miterlimit:4;stroke-dasharray:none;stroke-linecap:square;fill:#d1d1d1;fill-opacity:1.0;fill-rule: evenodd"/>
<path id="Extrude001_f0020"  d="M -97.96485100000005 8.750000000000002 L -98.00000000000006 -17.000000000000004 L -98.00000000000006 -17.000000000000004 L -97.96485100000005 8.750000000000002 L -97.96485100000005 8.750000000000002 Z " stroke="#000000" stroke-width="0.35 px" style="stroke-width:0.35;stroke-miterlimit:4;stroke-dasharray:none;stroke-linecap:square;fill:#d1d1d1;fill-opacity:1.0;fill-rule: evenodd"/>
<path id="Extrude001_f0021"  d="M -94.96485100000005 8.750000000000002 L -97.96485100000005 8.750000000000002 L -97.96485100000005 8.750000000000002 L -94.96485100000005 8.750000000000002 L -94.96485100000005 8.750000000000002 Z " stroke="#000000" stroke-width="0.35 px" style="stroke-width:0.35;stroke-miterlimit:4;stroke-dasharray:none;stroke-linecap:square;fill:#d1d1d1;fill-opacity:1.0;fill-rule: evenodd"/>
<path id="Extrude001_f0022"  d="M -95.00000000000007 35.87499999999437 L -94.96485100000005 8.750000000000002 L -94.96485100000005 8.750000000000002 L -95.00000000000007 35.87499999999437 L -95.00000000000007 35.87499999999437 Z " stroke="#000000" stroke-width="0.35 px" style="stroke-width:0.35;stroke-miterlimit:4;stroke-dasharray:none;stroke-linecap:square;fill:#d1d1d1;fill-opacity:1.0;fill-rule: evenodd"/>
<path id="Extrude001_f0023"  d="M -91.05000000000008 35.87499999999437 L -95.00000000000007 35.87499999999437 L -95.00000000000007 35.87499999999437 L -91.05000000000008 35.87499999999437 L -91.05000000000008 35.87499999999437 Z " stroke="#000000" stroke-width="0.35 px" style="stroke-width:0.35;stroke-miterlimit:4;stroke-dasharray:none;stroke-linecap:square;fill:#d1d1d1;fill-opacity:1.0;fill-rule: evenodd"/>
<path id="Extrude001_f0024"  d="M -91.05000000000008 34.62499999999437 L -91.05000000000008 35.87499999999437 L -91.05000000000008 35.87499999999437 L -91.05000000000008 34.62499999999437 L -91.05000000000008 34.62499999999437 Z " stroke="#000000" stroke-width="0.35 px" style="stroke-width:0.35;stroke-miterlimit:4;stroke-dasharray:none;stroke-linecap:square;fill:#d1d1d1;fill-opacity:1.0;fill-rule: evenodd"/>
<path id="Extrude001_f0025"  d="M -88.40000000000008 34.62499999999437 L -91.05000000000008 34.62499999999437 L -91.05000000000008 34.62499999999437 L -88.40000000000008 34.62499999999437 L -88.40000000000008 34.62499999999437 Z " stroke="#000000" stroke-width="0.35 px" style="stroke-width:0.35;stroke-miterlimit:4;stroke-dasharray:none;stroke-linecap:square;fill:#d1d1d1;fill-opacity:1.0;fill-rule: evenodd"/>
<path id="Extrude001_f0026"  d="M -88.40000000000008 35.87499999999437 L -88.40000000000008 34.62499999999437 L -88.40000000000008 34.62499999999437 L -88.40000000000008 35.87499999999437 L -88.40000000000008 35.87499999999437 Z " stroke="#000000" stroke-width="0.35 px" style="stroke-width:0.35;stroke-miterlimit:4;stroke-dasharray:none;stroke-linecap:square;fill:#d1d1d1;fill-opacity:1.0;fill-rule: evenodd"/>
<path id="Extrude001_f0027"  d="M -85.75000000000007 35.87499999999437 L -88.40000000000008 35.87499999999437 L -88.40000000000008 35.87499999999437 L -85.75000000000007 35.87499999999437 L -85.75000000000007 35.87499999999437 Z " stroke="#000000" stroke-width="0.35 px" style="stroke-width:0.35;stroke-miterlimit:4;stroke-dasharray:none;stroke-linecap:square;fill:#d1d1d1;fill-opacity:1.0;fill-rule: evenodd"/>
<path id="Extrude001_f0028"  d="M -85.75000000000007 39.12499999999437 L -85.75000000000007 35.87499999999437 L -85.75000000000007 35.87499999999437 L -85.75000000000007 39.12499999999437 L -85.75000000000007 39.12499999999437 Z " stroke="#000000" stroke-width="0.35 px" style="stroke-width:0.35;stroke-miterlimit:4;stroke-dasharray:none;stroke-linecap:square;fill:#d1d1d1;fill-opacity:1.0;fill-rule: evenodd"/>
<path id="Extrude001_f0029"  d="M -88.40000000000008 39.12499999999437 L -85.75000000000007 39.12499999999437 L -85.75000000000007 39.12499999999437 L -88.40000000000008 39.12499999999437 L -88.40000000000008 39.12499999999437 Z " stroke="#000000" stroke-width="0.35 px" style="stroke-width:0.35;stroke-miterlimit:4;stroke-dasharray:none;stroke-linecap:square;fill:#d1d1d1;fill-opacity:1.0;fill-rule: evenodd"/>
<path id="Extrude001_f0030"  d="M -88.40000000000008 40.37499999999437 L -88.40000000000008 39.12499999999437 L -88.40000000000008 39.12499999999437 L -88.40000000000008 40.37499999999437 L -88.40000000000008 40.37499999999437 Z " stroke="#000000" stroke-width="0.35 px" style="stroke-width:0.35;stroke-miterlimit:4;stroke-dasharray:none;stroke-linecap:square;fill:#d1d1d1;fill-opacity:1.0;fill-rule: evenodd"/>
<path id="Extrude001_f0031"  d="M -91.05000000000008 40.37499999999437 L -88.40000000000008 40.37499999999437 L -88.40000000000008 40.37499999999437 L -91.05000000000008 40.37499999999437 L -91.05000000000008 40.37499999999437 Z " stroke="#000000" stroke-width="0.35 px" style="stroke-width:0.35;stroke-miterlimit:4;stroke-dasharray:none;stroke-linecap:square;fill:#d1d1d1;fill-opacity:1.0;fill-rule: evenodd"/>
<path id="Extrude001_f0032"  d="M -91.05000000000008 39.12499999999437 L -91.05000000000008 40.37499999999437 L -91.05000000000008 40.37499999999437 L -91.05000000000008 39.12499999999437 L -91.05000000000008 39.12499999999437 Z " stroke="#000000" stroke-width="0.35 px" style="stroke-width:0.35;stroke-miterlimit:4;stroke-dasharray:none;stroke-linecap:square;fill:#d1d1d1;fill-opacity:1.0;fill-rule: evenodd"/>
<path id="Extrude001_f0033"  d="M -95.00000000000007 39.12499999999437 L -91.05000000000008 39.12499999999437 L -91.05000000000008 39.12499999999437 L -95.00000000000007 39.12499999999437 L -95.00000000000007 39.12499999999437 Z " stroke="#000000" stroke-width="0.35 px" style="stroke-width:0.35;stroke-miterlimit:4;stroke-dasharray:none;stroke-linecap:square;fill:#d1d1d1;fill-opacity:1.0;fill-rule: evenodd"/>
<path id="Extrude001_f0034"  d="M -95.00000000000007 66.25000000000001 L -95.00000000000007 39.12499999999437 L -95.00000000000007 39.12499999999437 L -95.00000000000007 66.25000000000001 L -95.00000000000007 66.25000000000001 Z " stroke="#000000" stroke-width="0.35 px" style="stroke-width:0.35;stroke-miterlimit:4;stroke-dasharray:none;stroke-linecap:square;fill:#d1d1d1;fill-opacity:1.0;fill-rule: evenodd"/>
<path id="Extrude001_f0035"  d="M -98.00000000000007 66.25000000000001 L -95.00000000000007 66.25000000000001 L -95.00000000000007 66.25000000000001 L -98.00000000000007 66.25000000000001 L -98.00000000000007 66.25000000000001 Z " stroke="#000000" stroke-width="0.35 px" style="stroke-width:0.35;stroke-miterlimit:4;stroke-dasharray:none;stroke-linecap:square;fill:#d1d1d1;fill-opacity:1.0;fill-rule: evenodd"/>
<path id="Extrude001_f0036"  d="M -98.00000000000007 123.75000000000003 L -98.00000000000007 66.25000000000001 L -98.00000000000007 66.25000000000001 L -98.00000000000007 123.75000000000003 L -98.00000000000007 123.75000000000003 Z " stroke="#000000" stroke-width="0.35 px" style="stroke-width:0.35;stroke-miterlimit:4;stroke-dasharray:none;stroke-linecap:square;fill:#d1d1d1;fill-opacity:1.0;fill-rule: evenodd"/>
<path id="Extrude001_f0037"  d="M -95.00000000000007 123.75000000000003 L -98.00000000000007 123.75000000000003 L -98.00000000000007 123.75000000000003 L -95.00000000000007 123.75000000000003 L -95.00000000000007 123.75000000000003 Z " stroke="#000000" stroke-width="0.35 px" style="stroke-width:0.35;stroke-miterlimit:4;stroke-dasharray:none;stroke-linecap:square;fill:#d1d1d1;fill-opacity:1.0;fill-rule: evenodd"/>
<path id="Extrude001_f0038"  d="M -95.00000000000007 150.87500000000003 L -95.00000000000007 123.75000000000003 L -95.00000000000007 123.75000000000003 L -95.00000000000007 150.87500000000003 L -95.00000000000007 150.87500000000003 Z " stroke="#000000" stroke-width="0.35 px" style="stroke-width:0.35;stroke-miterlimit:4;stroke-dasharray:none;stroke-linecap:square;fill:#d1d1d1;fill-opacity:1.0;fill-rule: evenodd"/>
<path id="Extrude001_f0039"  d="M -91.05000000000008 150.87500000000003 L -95.00000000000007 150.87500000000003 L -95.00000000000007 150.87500000000003 L -91.05000000000008 150.87500000000003 L -91.05000000000008 150.87500000000003 Z " stroke="#000000" stroke-width="0.35 px" style="stroke-width:0.35;stroke-miterlimit:4;stroke-dasharray:none;stroke-linecap:square;fill:#d1d1d1;fill-opacity:1.0;fill-rule: evenodd"/>
<path id="Extrude001_f0040"  d="M -91.05000000000008 149.62500000000003 L -91.05000000000008 150.87500000000003 L -91.05000000000008 150.87500000000003 L -91.05000000000008 149.62500000000003 L -91.05000000000008 149.62500000000003 Z " stroke="#000000" stroke-width="0.35 px" style="stroke-width:0.35;stroke-miterlimit:4;stroke-dasharray:none;stroke-linecap:square;fill:#d1d1d1;fill-opacity:1.0;fill-rule: evenodd"/>
<path id="Extrude001_f0041"  d="M -88.40000000000008 149.62500000000003 L -91.05000000000008 149.62500000000003 L -91.05000000000008 149.62500000000003 L -88.40000000000008 149.62500000000003 L -88.40000000000008 149.62500000000003 Z " stroke="#000000" stroke-width="0.35 px" style="stroke-width:0.35;stroke-miterlimit:4;stroke-dasharray:none;stroke-linecap:square;fill:#d1d1d1;fill-opacity:1.0;fill-rule: evenodd"/>
<path id="Extrude001_f0042"  d="M -88.40000000000008 150.87500000000003 L -88.40000000000008 149.62500000000003 L -88.40000000000008 149.62500000000003 L -88.40000000000008 150.87500000000003 L -88.40000000000008 150.87500000000003 Z " stroke="#000000" stroke-width="0.35 px" style="stroke-width:0.35;stroke-miterlimit:4;stroke-dasharray:none;stroke-linecap:square;fill:#d1d1d1;fill-opacity:1.0;fill-rule: evenodd"/>
<path id="Extrude001_f0043"  d="M -85.75000000000007 150.87500000000003 L -88.40000000000008 150.87500000000003 L -88.40000000000008 150.87500000000003 L -85.75000000000007 150.87500000000003 L -85.75000000000007 150.87500000000003 Z " stroke="#000000" stroke-width="0.35 px" style="stroke-width:0.35;stroke-miterlimit:4;stroke-dasharray:none;stroke-linecap:square;fill:#d1d1d1;fill-opacity:1.0;fill-rule: evenodd"/>
<path id="Extrude001_f0044"  d="M -85.75000000000007 154.12500000000003 L -85.75000000000007 150.87500000000003 L -85.75000000000007 150.87500000000003 L -85.75000000000007 154.12500000000003 L -85.75000000000007 154.12500000000003 Z " stroke="#000000" stroke-width="0.35 px" style="stroke-width:0.35;stroke-miterlimit:4;stroke-dasharray:none;stroke-linecap:square;fill:#d1d1d1;fill-opacity:1.0;fill-rule: evenodd"/>
<path id="Extrude001_f0045"  d="M -88.40000000000008 154.12500000000003 L -85.75000000000007 154.12500000000003 L -85.75000000000007 154.12500000000003 L -88.40000000000008 154.12500000000003 L -88.40000000000008 154.12500000000003 Z " stroke="#000000" stroke-width="0.35 px" style="stroke-width:0.35;stroke-miterlimit:4;stroke-dasharray:none;stroke-linecap:square;fill:#d1d1d1;fill-opacity:1.0;fill-rule: evenodd"/>
<path id="Extrude001_f0046"  d="M -88.40000000000008 155.37500000000003 L -88.40000000000008 154.12500000000003 L -88.40000000000008 154.12500000000003 L -88.40000000000008 155.37500000000003 L -88.40000000000008 155.37500000000003 Z " stroke="#000000" stroke-width="0.35 px" style="stroke-width:0.35;stroke-miterlimit:4;stroke-dasharray:none;stroke-linecap:square;fill:#d1d1d1;fill-opacity:1.0;fill-rule: evenodd"/>
<path id="Extrude001_f0047"  d="M -91.05000000000008 155.37500000000003 L -88.40000000000008 155.37500000000003 L -88.40000000000008 155.37500000000003 L -91.05000000000008 155.37500000000003 L -91.05000000000008 155.37500000000003 Z " stroke="#000000" stroke-width="0.35 px" style="stroke-width:0.35;stroke-miterlimit:4;stroke-dasharray:none;stroke-linecap:square;fill:#d1d1d1;fill-opacity:1.0;fill-rule: evenodd"/>
<path id="Extrude001_f0048"  d="M -91.05000000000008 154.12500000000003 L -91.05000000000008 155.37500000000003 L -91.05000000000008 155.37500000000003 L -91.05000000000008 154.12500000000003 L -91.05000000000008 154.12500000000003 Z " stroke="#000000" stroke-width="0.35 px" style="stroke-width:0.35;stroke-miterlimit:4;stroke-dasharray:none;stroke-linecap:square;fill:#d1d1d1;fill-opacity:1.0;fill-rule: evenodd"/>
<path id="Extrude001_f0049"  d="M -95.00000000000007 154.12500000000003 L -91.05000000000008 154.12500000000003 L -91.05000000000008 154.12500000000003 L -95.00000000000007 154.12500000000003 L -95.00000000000007 154.12500000000003 Z " stroke="#000000" stroke-width="0.35 px" style="stroke-width:0.35;stroke-miterlimit:4;stroke-dasharray:none;stroke-linecap:square;fill:#d1d1d1;fill-opacity:1.0;fill-rule: evenodd"/>
<path id="Extrude001_f0050"  d="M -95.00000000000007 181.25000000000003 L -95.00000000000007 154.12500000000003 L -95.00000000000007 154.12500000000003 L -95.00000000000007 181.25000000000003 L -95.00000000000007 181.25000000000003 Z " stroke="#000000" stroke-width="0.35 px" style="stroke-width:0.35;stroke-miterlimit:4;stroke-dasharray:none;stroke-linecap:square;fill:#d1d1d1;fill-opacity:1.0;fill-rule: evenodd"/>
<path id="Extrude001_f0051"  d="M -98.00000000000007 181.25000000000003 L -95.00000000000007 181.25000000000003 L -95.00000000000007 181.25000000000003 L -98.00000000000007 181.25000000000003 L -98.00000000000007 181.25000000000003 Z " stroke="#000000" stroke-width="0.35 px" style="stroke-width:0.35;stroke-miterlimit:4;stroke-dasharray:none;stroke-linecap:square;fill:#d1d1d1;fill-opacity:1.0;fill-rule: evenodd"/>
<path id="Extrude001_f0052"  d="M -98.00000000000006 207.00000000000006 L -98.00000000000007 181.25000000000003 L -98.00000000000007 181.25000000000003 L -98.00000000000006 207.00000000000006 L -98.00000000000006 207.00000000000006 Z " stroke="#000000" stroke-width="0.35 px" style="stroke-width:0.35;stroke-miterlimit:4;stroke-dasharray:none;stroke-linecap:square;fill:#d1d1d1;fill-opacity:1.0;fill-rule: evenodd"/>
<path id="Extrude001_f0053"  d="M -66.75000000000006 207.00000000000006 L -66.75000000000006 207.00000000000006 L -98.00000000000006 207.00000000000006 L -98.00000000000006 207.00000000000006 L -66.75000000000006 207.00000000000006 Z " stroke="#000000" stroke-width="0.35 px" style="stroke-width:0.35;stroke-miterlimit:4;stroke-dasharray:none;stroke-linecap:square;fill:#d1d1d1;fill-opacity:1.0;fill-rule: evenodd"/>
<circle cx="-58.00000000000005" cy="101.00000000000001" r="1.5500000000000005" stroke="#000000" stroke-width="0.35 px" style="stroke-width:0.35;stroke-miterlimit:4;stroke-dasharray:none;stroke-linecap:square;fill:#d1d1d1"/>
<circle cx="-58.00000000000005" cy="101.00000000000001" r="1.5500000000000005" stroke="#000000" stroke-width="0.35 px" style="stroke-width:0.35;stroke-miterlimit:4;stroke-dasharray:none;stroke-linecap:square;fill:#d1d1d1"/>
<circle cx="-58.00000000000006" cy="101.00000000000001" r="1.5500000000000005" stroke="#000000" stroke-width="0.35 px" style="stroke-width:0.35;stroke-miterlimit:4;stroke-dasharray:none;stroke-linecap:square;fill:#d1d1d1"/>
<title>b'Ecase_right'</title>
</g>
</svg>