<?xml version="1.0"?>
<!DOCTYPE svg PUBLIC "-//W3C//DTD SVG 1.1//EN" "http://www.w3.org/Graphics/SVG/1.1/DTD/svg11.dtd">
<svg width="51.00000000000009mm" height="180.99999999999997mm" viewBox="0 0 51.00000000000009 180.99999999999997" xmlns="http://www.w3.org/2000/svg" version="1.1">
<g id="Sketch008" transform="translate(-44.500000,377.500000) scale(1,-1)">
<path id="Sketch008_w0000"  d="M 44.99999999999996 304.0 L 44.99999999999993 377.0 L 51.19999999999993 377.0 L 51.19999999999993 374.0 L 55.89999999999993 374.0 L 55.89999999999993 370.0 L 54.69999999999993 370.0 L 54.69999999999993 367.40000000000003 L 55.89999999999993 367.40000000000003 L 55.89999999999993 364.80000000000007 L 59.19999999999993 364.80000000000007 L 59.19999999999993 367.40000000000003 L 60.39999999999993 367.40000000000003 L 60.39999999999993 370.0 L 59.19999999999993 370.0 L 59.19999999999993 374.0 L 63.89999999999993 374.0 L 63.89999999999993 377.0 L 94.99999999999993 377.0 L 94.99999999999993 354.5 L 91.99999999999993 354.5 L 91.99999999999994 333.62000000000006 L 87.99999999999994 333.62000000000006 L 87.99999999999994 334.82000000000005 L 85.39999999999995 334.82000000000005 L 85.39999999999995 333.62000000000006 L 82.79999999999994 333.62000000000006 L 82.79999999999994 330.32000000000005 L 85.39999999999995 330.32000000000005 L 85.39999999999995 329.12000000000006 L 87.99999999999994 329.12000000000006 L 87.99999999999994 330.32000000000005 L 91.99999999999994 330.32000000000005 L 91.99999999999996 309.44000000000005 L 94.99999999999996 309.44000000000005 L 94.99999999999997 264.44000000000005 L 91.99999999999997 264.44000000000005 L 91.99999999999999 243.56000000000006 L 87.99999999999999 243.56000000000006 L 87.99999999999999 244.76000000000005 L 85.39999999999999 244.76000000000005 L 85.39999999999999 243.56000000000003 L 82.79999999999998 243.56000000000003 L 82.79999999999998 240.26000000000005 L 85.39999999999999 240.26000000000005 L 85.39999999999999 239.06000000000003 L 87.99999999999999 239.06000000000003 L 87.99999999999999 240.26000000000005 L 91.99999999999999 240.26000000000005 L 92.0 219.38000000000005 L 95.0 219.38000000000005 L 95.0 197.00000000000006 L 63.900000000000006 197.00000000000003 L 63.900000000000006 200.00000000000003 L 59.20000000000001 200.00000000000003 L 59.2 204.00000000000003 L 60.4 204.00000000000003 L 60.4 206.60000000000002 L 59.2 206.60000000000002 L 59.2 209.20000000000002 L 55.9 209.20000000000002 L 55.9 206.60000000000002 L 54.7 206.60000000000002 L 54.7 204.00000000000003 L 55.9 204.00000000000003 L 55.900000000000006 200.00000000000003 L 51.20000000000001 200.00000000000003 L 51.20000000000001 197.00000000000003 L 45.00000000000001 197.00000000000003 L 44.99999999999997 282.0 L 56.99999999999997 282.0 L 56.99999999999996 304.0 L 44.99999999999996 304.0 " stroke="#000000" stroke-width="0.35 px" style="stroke-width:0.35;stroke-miterlimit:4;stroke-dasharray:none;stroke-linecap:square;fill:none;fill-opacity:1;fill-rule: evenodd"/>
<path id="Sketch008_w0001"  d="M 76.99999999999996 311.0 L 76.99999999999996 301.0 L 88.99999999999996 301.00000000000006 L 88.99999999999996 311.00000000000006 L 76.99999999999996 311.0 " stroke="#000000" stroke-width="0.35 px" style="stroke-width:0.35;stroke-miterlimit:4;stroke-dasharray:none;stroke-linecap:square;fill:none;fill-opacity:1;fill-rule: evenodd"/>
<path id="Sketch008_w0002"  d="M 69.59999999999997 290.0 M 69.59999999999997 290.0 L 69.09999999999997 289.5 L 69.09999999999997 279.5 M 69.09999999999997 279.5 L 69.59999999999997 279.0 L 75.99999999999997 279.0 M 75.99999999999997 279.0 L 76.49999999999997 279.5 L 76.49999999999997 289.5 M 76.49999999999997 289.5 L 75.99999999999997 290.0 L 69.59999999999997 290.0 " stroke="#000000" stroke-width="0.35 px" style="stroke-width:0.35;stroke-miterlimit:4;stroke-dasharray:none;stroke-linecap:square;fill:none;fill-opacity:1;fill-rule: evenodd"/>
<title>b'Sketch008'</title>
</g>
</svg>