<?xml version="1.0"?>
<!DOCTYPE svg PUBLIC "-//W3C//DTD SVG 1.1//EN" "http://www.w3.org/Graphics/SVG/1.1/DTD/svg11.dtd">
<svg width="164.22000000007566mm" height="18.22000000000148mm" viewBox="0 0 164.22000000007566 18.22000000000148" xmlns="http://www.w3.org/2000/svg" version="1.1">
<g id="Extrude012" transform="translate(6.610000,46.610000) scale(1,-1)">
<path id="Extrude012_f0000"  d="M -5.000000000074106 38.849999999972816 L -5.000000000074106 38.849999999972816 L -5.000000000074106 36.15000000002717 L -5.000000000074106 36.15000000002717 L -5.000000000074105 38.84999999997281 Z " stroke="#000000" stroke-width="0.35 px" style="stroke-width:0.35;stroke-miterlimit:4;stroke-dasharray:none;stroke-linecap:square;fill:#cccccc;fill-opacity:1.0;fill-rule: evenodd"/>
<path id="Extrude012_f0001"  d="M -5.000000000074106 36.15000000002717 L -5.000000000074106 36.15000000002717 L 0.0 36.15000000002717 L 0.0 36.15000000002717 L -5.000000000074105 36.15000000002716 Z " stroke="#000000" stroke-width="0.35 px" style="stroke-width:0.35;stroke-miterlimit:4;stroke-dasharray:none;stroke-linecap:square;fill:#cccccc;fill-opacity:1.0;fill-rule: evenodd"/>
<path id="Extrude012_f0002"  d="M 0.0 36.15000000002717 L 0.0 36.15000000002717 L 0.0 29.999999999999993 L 0.0 29.999999999999993 L 0.0 36.15000000002716 Z " stroke="#000000" stroke-width="0.35 px" style="stroke-width:0.35;stroke-miterlimit:4;stroke-dasharray:none;stroke-linecap:square;fill:#cccccc;fill-opacity:1.0;fill-rule: evenodd"/>
<path id="Extrude012_f0003"  d="M 0.0 29.999999999999993 L 0.0 29.999999999999993 L 151.00000000000006 29.999999999999993 L 151.00000000000006 29.999999999999993 L 0.0 29.999999999999986 Z " stroke="#000000" stroke-width="0.35 px" style="stroke-width:0.35;stroke-miterlimit:4;stroke-dasharray:none;stroke-linecap:square;fill:#cccccc;fill-opacity:1.0;fill-rule: evenodd"/>
<path id="Extrude012_f0004"  d="M 151.00000000000006 29.999999999999993 L 151.00000000000006 29.999999999999993 L 151.00000000000006 36.14999999999999 L 151.00000000000006 36.14999999999999 L 151.00000000000003 29.999999999999986 Z " stroke="#000000" stroke-width="0.35 px" style="stroke-width:0.35;stroke-miterlimit:4;stroke-dasharray:none;stroke-linecap:square;fill:#cccccc;fill-opacity:1.0;fill-rule: evenodd"/>
<path id="Extrude012_f0005"  d="M 151.00000000000006 36.14999999999999 L 151.00000000000006 36.14999999999999 L 156.00000000000006 36.14999999999999 L 156.00000000000006 36.14999999999999 L 151.00000000000003 36.149999999999984 Z " stroke="#000000" stroke-width="0.35 px" style="stroke-width:0.35;stroke-miterlimit:4;stroke-dasharray:none;stroke-linecap:square;fill:#cccccc;fill-opacity:1.0;fill-rule: evenodd"/>
<path id="Extrude012_f0006"  d="M 156.00000000000006 36.14999999999999 L 156.00000000000006 36.14999999999999 L 156.00000000000006 38.849999999999994 L 156.00000000000006 38.849999999999994 L 156.00000000000003 36.149999999999984 Z " stroke="#000000" stroke-width="0.35 px" style="stroke-width:0.35;stroke-miterlimit:4;stroke-dasharray:none;stroke-linecap:square;fill:#cccccc;fill-opacity:1.0;fill-rule: evenodd"/>
<path id="Extrude012_f0007"  d="M 156.00000000000006 38.849999999999994 L 156.00000000000006 38.849999999999994 L 151.00000000000006 38.849999999999994 L 151.00000000000006 38.849999999999994 L 156.00000000000003 38.84999999999999 Z " stroke="#000000" stroke-width="0.35 px" style="stroke-width:0.35;stroke-miterlimit:4;stroke-dasharray:none;stroke-linecap:square;fill:#cccccc;fill-opacity:1.0;fill-rule: evenodd"/>
<path id="Extrude012_f0008"  d="M 151.00000000000006 38.849999999999994 L 151.00000000000006 38.849999999999994 L 151.00000000000006 44.99999999999999 L 151.00000000000006 44.99999999999999 L 151.00000000000003 38.84999999999999 Z " stroke="#000000" stroke-width="0.35 px" style="stroke-width:0.35;stroke-miterlimit:4;stroke-dasharray:none;stroke-linecap:square;fill:#cccccc;fill-opacity:1.0;fill-rule: evenodd"/>
<path id="Extrude012_f0009"  d="M 151.00000000000006 44.99999999999999 L 151.00000000000006 44.99999999999999 L 0.0 44.99999999999999 L 0.0 44.99999999999999 L 151.00000000000003 44.999999999999986 Z " stroke="#000000" stroke-width="0.35 px" style="stroke-width:0.35;stroke-miterlimit:4;stroke-dasharray:none;stroke-linecap:square;fill:#cccccc;fill-opacity:1.0;fill-rule: evenodd"/>
<path id="Extrude012_f0010"  d="M 0.0 44.99999999999999 L 0.0 44.99999999999999 L 0.0 38.849999999972816 L 0.0 38.849999999972816 L 0.0 44.999999999999986 Z " stroke="#000000" stroke-width="0.35 px" style="stroke-width:0.35;stroke-miterlimit:4;stroke-dasharray:none;stroke-linecap:square;fill:#cccccc;fill-opacity:1.0;fill-rule: evenodd"/>
<path id="Extrude012_f0011"  d="M 0.0 38.849999999972816 L 0.0 38.849999999972816 L -5.000000000074106 38.849999999972816 L -5.000000000074106 38.849999999972816 L 0.0 38.84999999997281 Z " stroke="#000000" stroke-width="0.35 px" style="stroke-width:0.35;stroke-miterlimit:4;stroke-dasharray:none;stroke-linecap:square;fill:#cccccc;fill-opacity:1.0;fill-rule: evenodd"/>
<path id="Extrude012_f0012"  d="M -5.000000000074106 38.849999999972816 L -5.000000000074106 36.15000000002717 L 0.0 36.15000000002717 L 0.0 29.999999999999993 L 151.00000000000006 29.999999999999993 L 151.00000000000006 36.14999999999999 L 156.00000000000006 36.14999999999999 L 156.00000000000006 38.849999999999994 L 151.00000000000006 38.849999999999994 L 151.00000000000006 44.99999999999999 L 0.0 44.99999999999999 L 0.0 38.849999999972816 L -5.000000000074106 38.849999999972816 Z " stroke="#000000" stroke-width="0.35 px" style="stroke-width:0.35;stroke-miterlimit:4;stroke-dasharray:none;stroke-linecap:square;fill:#cccccc;fill-opacity:1.0;fill-rule: evenodd"/>
<path id="Extrude012_f0013"  d="M -5.000000000074106 36.15000000002717 L 0.0 36.15000000002717 L 0.0 29.999999999999993 L 151.00000000000006 29.999999999999993 L 151.00000000000006 36.14999999999999 L 156.00000000000006 36.14999999999999 L 156.00000000000006 38.849999999999994 L 151.00000000000006 38.849999999999994 L 151.00000000000006 44.99999999999999 L 0.0 44.99999999999999 L 0.0 38.849999999972816 L -5.000000000074106 38.849999999972816 L -5.000000000074106 36.15000000002717 Z " stroke="#000000" stroke-width="0.35 px" style="stroke-width:0.35;stroke-miterlimit:4;stroke-dasharray:none;stroke-linecap:square;fill:#cccccc;fill-opacity:1.0;fill-rule: evenodd"/>
<title>b'Guide-rail'</title>
</g>
</svg>