<?xml version="1.0"?>
<!DOCTYPE svg PUBLIC "-//W3C//DTD SVG 1.1//EN" "http://www.w3.org/Graphics/SVG/1.1/DTD/svg11.dtd">
<svg width="183.60000000000002mm" height="233.60000000000002mm" viewBox="0 0 183.60000000000002 233.60000000000002" xmlns="http://www.w3.org/2000/svg" version="1.1">
<g id="Sketch" transform="translate(14.800000,211.800000) scale(1,-1)">
<path id="Sketch_w0000"  d="M -10.0 207.0 L -10.0 181.25 L -13.0 181.25 L -13.0 154.125 L -9.75 154.125 L -9.75 152.5 L -9.75 150.875 L -13.0 150.875 L -13.0 123.75 L -10.0 123.75 L -10.0 66.25 L -13.0 66.25 L -13.0 39.125 L -9.75 39.125 L -9.75 37.5 L -9.75 35.875 L -13.0 35.875 L -13.0 8.75 L -10.0 8.75 L -10.0 -17.0 L 9.5 -17.0 L 9.5 -20.0 L 30.375 -20.0 L 30.375 -16.75 L 32.0 -16.75 L 33.625 -16.75 L 33.625 -20.0 L 54.5 -20.0 L 54.5 -17.0 L 99.5 -17.0 L 99.5 -20.0 L 120.375 -20.0 L 120.375 -16.75 L 122.0 -16.75 L 123.625 -16.75 L 123.625 -20.0 L 144.5 -20.0 L 144.5 -17.0 L 164.0 -17.0 L 164.0 8.75 L 167.0 8.75 L 167.0 35.875 L 163.75 35.875 L 163.75 37.5 L 163.75 39.125 L 167.0 39.125 L 167.0 66.25 L 164.0 66.25 L 164.0 123.75 L 167.0 123.75 L 167.0 150.875 L 163.75 150.875 L 163.75 152.5 L 163.75 154.125 L 167.0 154.125 L 167.0 181.25 L 164.0 181.25 L 164.0 207.0 L 144.5 207.0 L 144.505 210.0 L 123.625 210.0 L 123.625 206.75 L 122.0 206.75 L 120.375 206.75 L 120.38 210.0 L 99.5 210.0 L 99.5 207.0 L 54.5 207.0 L 54.504999999999995 210.0 L 33.625 210.0 L 33.625 206.75 L 32.0 206.75 L 30.375 206.75 L 30.38 210.0 L 9.5 210.0 L 9.5 207.0 L -10.0 207.0 " stroke="#ff0000" stroke-width="0.35 px" style="stroke-width:0.35;stroke-miterlimit:4;stroke-dasharray:none;stroke-linecap:square;fill:none;fill-opacity:1;fill-rule: evenodd"/>
<title>b'Sketch'</title>
</g>
</svg>