<?xml version="1.0"?>
<!DOCTYPE svg PUBLIC "-//W3C//DTD SVG 1.1//EN" "http://www.w3.org/Graphics/SVG/1.1/DTD/svg11.dtd">
<svg width="183.60000000000002mm" height="191.60000000000002mm" viewBox="0 0 183.60000000000002 191.60000000000002" xmlns="http://www.w3.org/2000/svg" version="1.1">
<g id="Extrude011" transform="translate(14.800000,186.800000) scale(1,-1)">
<path id="Extrude011_f0000"  d="M -13.0 185.0 L -13.0 185.0 L 167.0 185.0 L 167.0 185.0 L -13.0 185.0 Z " stroke="#000000" stroke-width="0.35 px" style="stroke-width:0.35;stroke-miterlimit:4;stroke-dasharray:none;stroke-linecap:square;fill:#cccccc;fill-opacity:1.0;fill-rule: evenodd"/>
<path id="Extrude011_f0001"  d="M 167.0 185.0 L 167.0 185.0 L 167.0 -3.0 L 167.0 -3.0 L 167.0 185.0 Z " stroke="#000000" stroke-width="0.35 px" style="stroke-width:0.35;stroke-miterlimit:4;stroke-dasharray:none;stroke-linecap:square;fill:#cccccc;fill-opacity:1.0;fill-rule: evenodd"/>
<path id="Extrude011_f0002"  d="M 167.0 -3.0 L 167.0 -3.0 L -13.0 -3.0 L -13.0 -3.0 L 167.0 -3.0 Z " stroke="#000000" stroke-width="0.35 px" style="stroke-width:0.35;stroke-miterlimit:4;stroke-dasharray:none;stroke-linecap:square;fill:#cccccc;fill-opacity:1.0;fill-rule: evenodd"/>
<path id="Extrude011_f0003"  d="M -13.0 -3.0 L -13.0 -3.0 L -13.0 185.0 L -13.0 185.0 L -13.0 -3.0 Z " stroke="#000000" stroke-width="0.35 px" style="stroke-width:0.35;stroke-miterlimit:4;stroke-dasharray:none;stroke-linecap:square;fill:#cccccc;fill-opacity:1.0;fill-rule: evenodd"/>
<path id="Extrude011_f0004"  d="M -13.0 185.0 L 167.0 185.0 L 167.0 -3.0 L -13.0 -3.0 L -13.0 185.0 Z " stroke="#000000" stroke-width="0.35 px" style="stroke-width:0.35;stroke-miterlimit:4;stroke-dasharray:none;stroke-linecap:square;fill:#cccccc;fill-opacity:1.0;fill-rule: evenodd"/>
<path id="Extrude011_f0005"  d="M 167.0 185.0 L 167.0 -3.0 L -13.0 -3.0 L -13.0 185.0 L 167.0 185.0 Z " stroke="#000000" stroke-width="0.35 px" style="stroke-width:0.35;stroke-miterlimit:4;stroke-dasharray:none;stroke-linecap:square;fill:#cccccc;fill-opacity:1.0;fill-rule: evenodd"/>
<title>b'Excrete_panel_base'</title>
</g>
</svg>