<?xml version="1.0"?>
<!DOCTYPE svg PUBLIC "-//W3C//DTD SVG 1.1//EN" "http://www.w3.org/Graphics/SVG/1.1/DTD/svg11.dtd">
<svg width="30.600000000000048mm" height="210.60000000000002mm" viewBox="0 0 30.600000000000048 210.60000000000002" xmlns="http://www.w3.org/2000/svg" version="1.1">
<g id="Sketch020" transform="translate(26.000000,200.300000) scale(1,-1)">
<path id="Sketch020_w0000"  d="M 4.299999999999997 -10.000000000000002 L 4.3 -9.547918011776344e-16 L -0.20000000000000034 4.440892098500633e-17 L -0.19999999999999563 22.0 L 4.300000000000004 22.0 L 4.30000000000001 44.0 L -0.19999999999999057 44.0 L -0.19999999999998586 66.0 L 4.300000000000015 66.0 L 4.300000000000019 88.0 L -0.1999999999999808 88.0 L -0.19999999999997609 110.0 L 4.300000000000024 110.0 L 4.300000000000029 132.0 L -0.19999999999997103 132.0 L -0.19999999999996632 154.0 L 4.3000000000000345 154.0 L 4.300000000000039 176.0 L -0.19999999999996126 176.0 L -0.19999999999995655 198.0 L 4.300000000000043 198.0 L 4.300000000000044 200.0 L -25.699999999999953 200.0 L -25.699999999999957 190.0 L -10.699999999999957 190.0 L -10.7 2.3758772726978344e-15 L -25.7 5.706546346573304e-15 L -25.700000000000003 -9.999999999999995 L 4.299999999999997 -10.000000000000002 " stroke="#000000" stroke-width="0.35 px" style="stroke-width:0.35;stroke-miterlimit:4;stroke-dasharray:none;stroke-linecap:square;fill:none;fill-opacity:1;fill-rule: evenodd"/>
<title>b'Bottom_side_panel'</title>
</g>
</svg>