<?xml version="1.0"?>
<!DOCTYPE svg PUBLIC "-//W3C//DTD SVG 1.1//EN" "http://www.w3.org/Graphics/SVG/1.1/DTD/svg11.dtd">
<svg width="173.39999999999998mm" height="197.89999999999998mm" viewBox="0 0 173.39999999999998 197.89999999999998" xmlns="http://www.w3.org/2000/svg" version="1.1">
<g id="Sketch021" transform="translate(9.700000,192.700000) scale(1,-1)">
<path id="Sketch021_w0000"  d="M -3.7 18.0 L -3.7 40.5 L -8.0 40.5 L -8.0 62.0 L -3.700000000000001 62.0 L -3.700000000000001 84.5 L -8.0 84.5 L -8.0 106.0 L -3.699999999998044 106.0 L -3.699999999998044 128.5 L -8.0 128.5 L -8.0 150.0 L -3.699999999994132 150.0 L -3.699999999994132 172.5 L -7.99999999998821 172.5 L -7.999999999988208 191.0 L 161.99999999999847 191.0 L 161.99999999999847 172.5000000000133 L 157.70000000000041 172.5000000000133 L 157.70000000000002 150.0 L 162.0 150.0 L 162.0 128.5 L 157.70000000000002 128.5 L 157.70000000000002 106.0 L 162.0 106.0 L 162.0 84.5 L 157.70000000000002 84.5 L 157.70000000000002 62.0 L 162.0 62.0 L 162.0 40.5 L 157.70000000000002 40.5 L 157.70000000000002 18.0 L 162.0 18.0 L 162.0 -3.5 L -8.0 -3.5 L -8.0 18.0 L -3.7 18.0 " stroke="#000000" stroke-width="0.35 px" style="stroke-width:0.35;stroke-miterlimit:4;stroke-dasharray:none;stroke-linecap:square;fill:none;fill-opacity:1;fill-rule: evenodd"/>
<path id="Sketch021_w0001"  d="M -2.0 5.799999999999999 L 20.5 5.799999999999999 L 20.5 1.5 L -2.0 1.5 L -2.0 5.799999999999999 " stroke="#000000" stroke-width="0.35 px" style="stroke-width:0.35;stroke-miterlimit:4;stroke-dasharray:none;stroke-linecap:square;fill:none;fill-opacity:1;fill-rule: evenodd"/>
<path id="Sketch021_w0002"  d="M 5.5 15.1 L 28.0 15.1 L 28.0 10.799999999999999 L 5.5 10.799999999999999 L 5.5 15.1 " stroke="#000000" stroke-width="0.35 px" style="stroke-width:0.35;stroke-miterlimit:4;stroke-dasharray:none;stroke-linecap:square;fill:none;fill-opacity:1;fill-rule: evenodd"/>
<path id="Sketch021_w0003"  d="M -1.999999999999999 24.805388231396535 L 20.5 24.805388231396535 L 20.5 20.505388231396537 L -2.0 20.505388231396537 L -1.999999999999999 24.805388231396535 " stroke="#000000" stroke-width="0.35 px" style="stroke-width:0.35;stroke-miterlimit:4;stroke-dasharray:none;stroke-linecap:square;fill:none;fill-opacity:1;fill-rule: evenodd"/>
<path id="Sketch021_w0004"  d="M 5.5 34.10538823139654 L 28.0 34.10538823139654 L 28.0 29.805388231396538 L 5.5 29.805388231396538 L 5.5 34.10538823139654 " stroke="#000000" stroke-width="0.35 px" style="stroke-width:0.35;stroke-miterlimit:4;stroke-dasharray:none;stroke-linecap:square;fill:none;fill-opacity:1;fill-rule: evenodd"/>
<path id="Sketch021_w0005"  d="M -1.999999999999998 43.81077646279307 L 20.500000000000004 43.81077646279307 L 20.500000000000004 39.510776462793075 L -1.999999999999997 39.510776462793075 L -1.999999999999998 43.81077646279307 " stroke="#000000" stroke-width="0.35 px" style="stroke-width:0.35;stroke-miterlimit:4;stroke-dasharray:none;stroke-linecap:square;fill:none;fill-opacity:1;fill-rule: evenodd"/>
<path id="Sketch021_w0006"  d="M 5.500000000000004 53.110776462793076 L 28.000000000000004 53.110776462793076 L 28.000000000000004 48.81077646279307 L 5.500000000000004 48.81077646279307 L 5.500000000000004 53.110776462793076 " stroke="#000000" stroke-width="0.35 px" style="stroke-width:0.35;stroke-miterlimit:4;stroke-dasharray:none;stroke-linecap:square;fill:none;fill-opacity:1;fill-rule: evenodd"/>
<path id="Sketch021_w0007"  d="M -1.999999999999996 62.81616469418961 L 20.500000000000004 62.81616469418961 L 20.500000000000004 58.51616469418961 L -1.999999999999996 58.51616469418961 L -1.999999999999996 62.81616469418961 " stroke="#000000" stroke-width="0.35 px" style="stroke-width:0.35;stroke-miterlimit:4;stroke-dasharray:none;stroke-linecap:square;fill:none;fill-opacity:1;fill-rule: evenodd"/>
<path id="Sketch021_w0008"  d="M 5.500000000000004 72.1161646941896 L 28.000000000000004 72.1161646941896 L 28.000000000000004 67.81616469418961 L 5.500000000000004 67.81616469418961 L 5.500000000000004 72.1161646941896 " stroke="#000000" stroke-width="0.35 px" style="stroke-width:0.35;stroke-miterlimit:4;stroke-dasharray:none;stroke-linecap:square;fill:none;fill-opacity:1;fill-rule: evenodd"/>
<path id="Sketch021_w0009"  d="M -1.999999999999995 81.82155292558615 L 20.500000000000004 81.82155292558615 L 20.500000000000004 77.52155292558615 L -1.999999999999996 77.52155292558615 L -1.999999999999995 81.82155292558615 " stroke="#000000" stroke-width="0.35 px" style="stroke-width:0.35;stroke-miterlimit:4;stroke-dasharray:none;stroke-linecap:square;fill:none;fill-opacity:1;fill-rule: evenodd"/>
<path id="Sketch021_w0010"  d="M 5.500000000000004 91.12155292558614 L 28.000000000000004 91.12155292558614 L 28.000000000000004 86.82155292558615 L 5.500000000000004 86.82155292558615 L 5.500000000000004 91.12155292558614 " stroke="#000000" stroke-width="0.35 px" style="stroke-width:0.35;stroke-miterlimit:4;stroke-dasharray:none;stroke-linecap:square;fill:none;fill-opacity:1;fill-rule: evenodd"/>
<path id="Sketch021_w0011"  d="M -1.999999999999994 100.82694115698268 L 20.500000000000007 100.82694115698268 L 20.500000000000007 96.52694115698269 L -1.999999999999994 96.52694115698269 L -1.999999999999994 100.82694115698268 " stroke="#000000" stroke-width="0.35 px" style="stroke-width:0.35;stroke-miterlimit:4;stroke-dasharray:none;stroke-linecap:square;fill:none;fill-opacity:1;fill-rule: evenodd"/>
<path id="Sketch021_w0012"  d="M 5.500000000000007 110.12694115698268 L 28.000000000000007 110.12694115698268 L 28.000000000000007 105.82694115698268 L 5.500000000000007 105.82694115698268 L 5.500000000000007 110.12694115698268 " stroke="#000000" stroke-width="0.35 px" style="stroke-width:0.35;stroke-miterlimit:4;stroke-dasharray:none;stroke-linecap:square;fill:none;fill-opacity:1;fill-rule: evenodd"/>
<path id="Sketch021_w0013"  d="M -1.999999999999993 119.83232938837922 L 20.500000000000007 119.83232938837922 L 20.500000000000007 115.53232938837922 L -1.999999999999993 115.53232938837922 L -1.999999999999993 119.83232938837922 " stroke="#000000" stroke-width="0.35 px" style="stroke-width:0.35;stroke-miterlimit:4;stroke-dasharray:none;stroke-linecap:square;fill:none;fill-opacity:1;fill-rule: evenodd"/>
<path id="Sketch021_w0014"  d="M 5.500000000000007 129.13232938837922 L 28.000000000000007 129.13232938837922 L 28.000000000000007 124.83232938837922 L 5.500000000000007 124.83232938837922 L 5.500000000000007 129.13232938837922 " stroke="#000000" stroke-width="0.35 px" style="stroke-width:0.35;stroke-miterlimit:4;stroke-dasharray:none;stroke-linecap:square;fill:none;fill-opacity:1;fill-rule: evenodd"/>
<path id="Sketch021_w0015"  d="M -1.999999999999992 138.83771761977576 L 20.500000000000007 138.83771761977576 L 20.500000000000007 134.53771761977578 L -1.999999999999992 134.53771761977578 L -1.999999999999992 138.83771761977576 " stroke="#000000" stroke-width="0.35 px" style="stroke-width:0.35;stroke-miterlimit:4;stroke-dasharray:none;stroke-linecap:square;fill:none;fill-opacity:1;fill-rule: evenodd"/>
<path id="Sketch021_w0016"  d="M 5.500000000000007 148.13771761977577 L 28.000000000000007 148.13771761977577 L 28.000000000000007 143.83771761977576 L 5.500000000000007 143.83771761977576 L 5.500000000000007 148.13771761977577 " stroke="#000000" stroke-width="0.35 px" style="stroke-width:0.35;stroke-miterlimit:4;stroke-dasharray:none;stroke-linecap:square;fill:none;fill-opacity:1;fill-rule: evenodd"/>
<path id="Sketch021_w0017"  d="M -1.999999999999991 157.8431058511723 L 20.50000000000001 157.8431058511723 L 20.50000000000001 153.5431058511723 L -1.99999999999999 153.5431058511723 L -1.999999999999991 157.8431058511723 " stroke="#000000" stroke-width="0.35 px" style="stroke-width:0.35;stroke-miterlimit:4;stroke-dasharray:none;stroke-linecap:square;fill:none;fill-opacity:1;fill-rule: evenodd"/>
<path id="Sketch021_w0018"  d="M 5.500000000000011 167.1431058511723 L 28.00000000000001 167.1431058511723 L 28.00000000000001 162.8431058511723 L 5.500000000000011 162.8431058511723 L 5.500000000000011 167.1431058511723 " stroke="#000000" stroke-width="0.35 px" style="stroke-width:0.35;stroke-miterlimit:4;stroke-dasharray:none;stroke-linecap:square;fill:none;fill-opacity:1;fill-rule: evenodd"/>
<path id="Sketch021_w0019"  d="M -1.999999999999989 176.84849408256883 L 20.50000000000001 176.84849408256883 L 20.50000000000001 172.54849408256885 L -1.999999999999989 172.54849408256885 L -1.999999999999989 176.84849408256883 " stroke="#000000" stroke-width="0.35 px" style="stroke-width:0.35;stroke-miterlimit:4;stroke-dasharray:none;stroke-linecap:square;fill:none;fill-opacity:1;fill-rule: evenodd"/>
<path id="Sketch021_w0020"  d="M 5.500000000000011 186.14849408256885 L 28.00000000000001 186.14849408256885 L 28.00000000000001 181.84849408256883 L 5.500000000000011 181.84849408256883 L 5.500000000000011 186.14849408256885 " stroke="#000000" stroke-width="0.35 px" style="stroke-width:0.35;stroke-miterlimit:4;stroke-dasharray:none;stroke-linecap:square;fill:none;fill-opacity:1;fill-rule: evenodd"/>
<path id="Sketch021_w0021"  d="M 29.996230926395846 5.799999999999999 L 52.489353963208934 5.799999999999999 L 52.489353963208934 1.881874245374583 L 29.996230926395846 1.881874245374583 L 29.996230926395846 5.799999999999999 " stroke="#000000" stroke-width="0.35 px" style="stroke-width:0.35;stroke-miterlimit:4;stroke-dasharray:none;stroke-linecap:square;fill:none;fill-opacity:1;fill-rule: evenodd"/>
<path id="Sketch021_w0022"  d="M 37.489353963208934 14.718125754625415 L 59.98247700002202 14.718125754625415 L 59.98247700002202 10.799999999999999 L 37.489353963208934 10.799999999999999 L 37.489353963208934 14.718125754625415 " stroke="#000000" stroke-width="0.35 px" style="stroke-width:0.35;stroke-miterlimit:4;stroke-dasharray:none;stroke-linecap:square;fill:none;fill-opacity:1;fill-rule: evenodd"/>
<path id="Sketch021_w0023"  d="M 29.996230926395846 24.805388231396538 L 52.489353963208934 24.805388231396538 L 52.489353963208934 20.88726247677112 L 29.996230926395846 20.88726247677112 L 29.996230926395846 24.805388231396538 " stroke="#000000" stroke-width="0.35 px" style="stroke-width:0.35;stroke-miterlimit:4;stroke-dasharray:none;stroke-linecap:square;fill:none;fill-opacity:1;fill-rule: evenodd"/>
<path id="Sketch021_w0024"  d="M 37.489353963208934 33.723513986021956 L 59.98247700002203 33.723513986021956 L 59.98247700002203 29.805388231396538 L 37.489353963208934 29.805388231396538 L 37.489353963208934 33.723513986021956 " stroke="#000000" stroke-width="0.35 px" style="stroke-width:0.35;stroke-miterlimit:4;stroke-dasharray:none;stroke-linecap:square;fill:none;fill-opacity:1;fill-rule: evenodd"/>
<path id="Sketch021_w0025"  d="M 29.996230926395846 43.81077646279307 L 52.489353963208934 43.81077646279307 L 52.489353963208934 39.89265070816766 L 29.996230926395846 39.89265070816766 L 29.996230926395846 43.81077646279307 " stroke="#000000" stroke-width="0.35 px" style="stroke-width:0.35;stroke-miterlimit:4;stroke-dasharray:none;stroke-linecap:square;fill:none;fill-opacity:1;fill-rule: evenodd"/>
<path id="Sketch021_w0026"  d="M 37.489353963208934 52.728902217418494 L 59.98247700002203 52.728902217418494 L 59.98247700002203 48.81077646279307 L 37.489353963208934 48.81077646279307 L 37.489353963208934 52.728902217418494 " stroke="#000000" stroke-width="0.35 px" style="stroke-width:0.35;stroke-miterlimit:4;stroke-dasharray:none;stroke-linecap:square;fill:none;fill-opacity:1;fill-rule: evenodd"/>
<path id="Sketch021_w0027"  d="M 29.99623092639585 62.81616469418961 L 52.48935396320894 62.81616469418961 L 52.48935396320894 58.898038939564195 L 29.99623092639585 58.898038939564195 L 29.99623092639585 62.81616469418961 " stroke="#000000" stroke-width="0.35 px" style="stroke-width:0.35;stroke-miterlimit:4;stroke-dasharray:none;stroke-linecap:square;fill:none;fill-opacity:1;fill-rule: evenodd"/>
<path id="Sketch021_w0028"  d="M 37.48935396320894 71.73429044881503 L 59.98247700002203 71.73429044881503 L 59.98247700002203 67.81616469418961 L 37.48935396320894 67.81616469418961 L 37.48935396320894 71.73429044881503 " stroke="#000000" stroke-width="0.35 px" style="stroke-width:0.35;stroke-miterlimit:4;stroke-dasharray:none;stroke-linecap:square;fill:none;fill-opacity:1;fill-rule: evenodd"/>
<path id="Sketch021_w0029"  d="M 29.99623092639585 81.82155292558615 L 52.48935396320894 81.82155292558615 L 52.48935396320894 77.90342717096074 L 29.99623092639585 77.90342717096074 L 29.99623092639585 81.82155292558615 " stroke="#000000" stroke-width="0.35 px" style="stroke-width:0.35;stroke-miterlimit:4;stroke-dasharray:none;stroke-linecap:square;fill:none;fill-opacity:1;fill-rule: evenodd"/>
<path id="Sketch021_w0030"  d="M 37.48935396320894 90.73967868021157 L 59.98247700002203 90.73967868021157 L 59.98247700002203 86.82155292558615 L 37.48935396320894 86.82155292558615 L 37.48935396320894 90.73967868021157 " stroke="#000000" stroke-width="0.35 px" style="stroke-width:0.35;stroke-miterlimit:4;stroke-dasharray:none;stroke-linecap:square;fill:none;fill-opacity:1;fill-rule: evenodd"/>
<path id="Sketch021_w0031"  d="M 29.99623092639585 100.82694115698268 L 52.48935396320894 100.82694115698268 L 52.48935396320894 96.90881540235728 L 29.99623092639585 96.90881540235728 L 29.99623092639585 100.82694115698268 " stroke="#000000" stroke-width="0.35 px" style="stroke-width:0.35;stroke-miterlimit:4;stroke-dasharray:none;stroke-linecap:square;fill:none;fill-opacity:1;fill-rule: evenodd"/>
<path id="Sketch021_w0032"  d="M 37.48935396320894 109.7450669116081 L 59.98247700002203 109.7450669116081 L 59.98247700002203 105.82694115698268 L 37.48935396320894 105.82694115698268 L 37.48935396320894 109.7450669116081 " stroke="#000000" stroke-width="0.35 px" style="stroke-width:0.35;stroke-miterlimit:4;stroke-dasharray:none;stroke-linecap:square;fill:none;fill-opacity:1;fill-rule: evenodd"/>
<path id="Sketch021_w0033"  d="M 29.996230926395853 119.83232938837922 L 52.48935396320894 119.83232938837922 L 52.48935396320894 115.91420363375381 L 29.996230926395853 115.91420363375381 L 29.996230926395853 119.83232938837922 " stroke="#000000" stroke-width="0.35 px" style="stroke-width:0.35;stroke-miterlimit:4;stroke-dasharray:none;stroke-linecap:square;fill:none;fill-opacity:1;fill-rule: evenodd"/>
<path id="Sketch021_w0034"  d="M 37.48935396320894 128.75045514300464 L 59.98247700002203 128.75045514300464 L 59.98247700002203 124.83232938837922 L 37.48935396320894 124.83232938837922 L 37.48935396320894 128.75045514300464 " stroke="#000000" stroke-width="0.35 px" style="stroke-width:0.35;stroke-miterlimit:4;stroke-dasharray:none;stroke-linecap:square;fill:none;fill-opacity:1;fill-rule: evenodd"/>
<path id="Sketch021_w0035"  d="M 29.996230926395853 138.83771761977576 L 52.48935396320894 138.83771761977576 L 52.48935396320894 134.91959186515035 L 29.996230926395853 134.91959186515035 L 29.996230926395853 138.83771761977576 " stroke="#000000" stroke-width="0.35 px" style="stroke-width:0.35;stroke-miterlimit:4;stroke-dasharray:none;stroke-linecap:square;fill:none;fill-opacity:1;fill-rule: evenodd"/>
<path id="Sketch021_w0036"  d="M 37.48935396320894 147.75584337440117 L 59.98247700002203 147.75584337440117 L 59.98247700002203 143.83771761977576 L 37.48935396320894 143.83771761977576 L 37.48935396320894 147.75584337440117 " stroke="#000000" stroke-width="0.35 px" style="stroke-width:0.35;stroke-miterlimit:4;stroke-dasharray:none;stroke-linecap:square;fill:none;fill-opacity:1;fill-rule: evenodd"/>
<path id="Sketch021_w0037"  d="M 29.996230926395853 157.8431058511723 L 52.48935396320894 157.8431058511723 L 52.48935396320894 153.92498009654688 L 29.996230926395853 153.92498009654688 L 29.996230926395853 157.8431058511723 " stroke="#000000" stroke-width="0.35 px" style="stroke-width:0.35;stroke-miterlimit:4;stroke-dasharray:none;stroke-linecap:square;fill:none;fill-opacity:1;fill-rule: evenodd"/>
<path id="Sketch021_w0038"  d="M 37.48935396320894 166.76123160579772 L 59.98247700002204 166.76123160579772 L 59.98247700002204 162.8431058511723 L 37.48935396320894 162.8431058511723 L 37.48935396320894 166.76123160579772 " stroke="#000000" stroke-width="0.35 px" style="stroke-width:0.35;stroke-miterlimit:4;stroke-dasharray:none;stroke-linecap:square;fill:none;fill-opacity:1;fill-rule: evenodd"/>
<path id="Sketch021_w0039"  d="M 29.996230926395857 176.84849408256883 L 52.48935396320895 176.84849408256883 L 52.48935396320895 172.93036832794343 L 29.996230926395857 172.93036832794343 L 29.996230926395857 176.84849408256883 " stroke="#000000" stroke-width="0.35 px" style="stroke-width:0.35;stroke-miterlimit:4;stroke-dasharray:none;stroke-linecap:square;fill:none;fill-opacity:1;fill-rule: evenodd"/>
<path id="Sketch021_w0040"  d="M 37.48935396320895 185.76661983719424 L 59.98247700002204 185.76661983719424 L 59.98247700002204 181.84849408256883 L 37.48935396320895 181.84849408256883 L 37.48935396320895 185.76661983719424 " stroke="#000000" stroke-width="0.35 px" style="stroke-width:0.35;stroke-miterlimit:4;stroke-dasharray:none;stroke-linecap:square;fill:none;fill-opacity:1;fill-rule: evenodd"/>
<path id="Sketch021_w0041"  d="M 61.99246185279169 5.799999999999999 L 84.47870792639566 5.799999999999999 L 84.47870792639566 2.037348194110923 L 61.99246185279169 2.037348194110923 L 61.99246185279169 5.799999999999999 " stroke="#000000" stroke-width="0.35 px" style="stroke-width:0.35;stroke-miterlimit:4;stroke-dasharray:none;stroke-linecap:square;fill:none;fill-opacity:1;fill-rule: evenodd"/>
<path id="Sketch021_w0042"  d="M 69.47870792639566 14.562651805889075 L 91.96495399999962 14.562651805889075 L 91.96495399999962 10.799999999999999 L 69.47870792639566 10.799999999999999 L 69.47870792639566 14.562651805889075 " stroke="#000000" stroke-width="0.35 px" style="stroke-width:0.35;stroke-miterlimit:4;stroke-dasharray:none;stroke-linecap:square;fill:none;fill-opacity:1;fill-rule: evenodd"/>
<path id="Sketch021_w0043"  d="M 61.99246185279169 24.805388231396538 L 84.47870792639566 24.805388231396538 L 84.47870792639566 21.04273642550746 L 61.99246185279169 21.04273642550746 L 61.99246185279169 24.805388231396538 " stroke="#000000" stroke-width="0.35 px" style="stroke-width:0.35;stroke-miterlimit:4;stroke-dasharray:none;stroke-linecap:square;fill:none;fill-opacity:1;fill-rule: evenodd"/>
<path id="Sketch021_w0044"  d="M 69.47870792639566 33.56804003728561 L 91.96495399999962 33.56804003728561 L 91.96495399999962 29.805388231396538 L 69.47870792639566 29.805388231396538 L 69.47870792639566 33.56804003728561 " stroke="#000000" stroke-width="0.35 px" style="stroke-width:0.35;stroke-miterlimit:4;stroke-dasharray:none;stroke-linecap:square;fill:none;fill-opacity:1;fill-rule: evenodd"/>
<path id="Sketch021_w0045"  d="M 61.99246185279169 43.81077646279307 L 84.47870792639566 43.81077646279307 L 84.47870792639566 40.048124656904 L 61.99246185279169 40.048124656904 L 61.99246185279169 43.81077646279307 " stroke="#000000" stroke-width="0.35 px" style="stroke-width:0.35;stroke-miterlimit:4;stroke-dasharray:none;stroke-linecap:square;fill:none;fill-opacity:1;fill-rule: evenodd"/>
<path id="Sketch021_w0046"  d="M 69.47870792639566 52.57342826868215 L 91.96495399999962 52.57342826868215 L 91.96495399999962 48.81077646279307 L 69.47870792639566 48.81077646279307 L 69.47870792639566 52.57342826868215 " stroke="#000000" stroke-width="0.35 px" style="stroke-width:0.35;stroke-miterlimit:4;stroke-dasharray:none;stroke-linecap:square;fill:none;fill-opacity:1;fill-rule: evenodd"/>
<path id="Sketch021_w0047"  d="M 61.99246185279169 62.81616469418961 L 84.47870792639566 62.81616469418961 L 84.47870792639566 59.05351288830054 L 61.99246185279169 59.05351288830054 L 61.99246185279169 62.81616469418961 " stroke="#000000" stroke-width="0.35 px" style="stroke-width:0.35;stroke-miterlimit:4;stroke-dasharray:none;stroke-linecap:square;fill:none;fill-opacity:1;fill-rule: evenodd"/>
<path id="Sketch021_w0048"  d="M 69.47870792639566 71.57881650007869 L 91.96495399999962 71.57881650007869 L 91.96495399999962 67.81616469418961 L 69.47870792639566 67.81616469418961 L 69.47870792639566 71.57881650007869 " stroke="#000000" stroke-width="0.35 px" style="stroke-width:0.35;stroke-miterlimit:4;stroke-dasharray:none;stroke-linecap:square;fill:none;fill-opacity:1;fill-rule: evenodd"/>
<path id="Sketch021_w0049"  d="M 61.9924618527917 81.82155292558615 L 84.47870792639566 81.82155292558615 L 84.47870792639566 78.05890111969707 L 61.9924618527917 78.05890111969707 L 61.9924618527917 81.82155292558615 " stroke="#000000" stroke-width="0.35 px" style="stroke-width:0.35;stroke-miterlimit:4;stroke-dasharray:none;stroke-linecap:square;fill:none;fill-opacity:1;fill-rule: evenodd"/>
<path id="Sketch021_w0050"  d="M 69.47870792639566 90.58420473147523 L 91.96495399999962 90.58420473147523 L 91.96495399999962 86.82155292558615 L 69.47870792639566 86.82155292558615 L 69.47870792639566 90.58420473147523 " stroke="#000000" stroke-width="0.35 px" style="stroke-width:0.35;stroke-miterlimit:4;stroke-dasharray:none;stroke-linecap:square;fill:none;fill-opacity:1;fill-rule: evenodd"/>
<path id="Sketch021_w0051"  d="M 61.9924618527917 100.82694115698268 L 84.47870792639566 100.82694115698268 L 84.47870792639566 97.0642893510936 L 61.9924618527917 97.0642893510936 L 61.9924618527917 100.82694115698268 " stroke="#000000" stroke-width="0.35 px" style="stroke-width:0.35;stroke-miterlimit:4;stroke-dasharray:none;stroke-linecap:square;fill:none;fill-opacity:1;fill-rule: evenodd"/>
<path id="Sketch021_w0052"  d="M 69.47870792639566 109.58959296287176 L 91.96495399999962 109.58959296287176 L 91.96495399999962 105.82694115698268 L 69.47870792639566 105.82694115698268 L 69.47870792639566 109.58959296287176 " stroke="#000000" stroke-width="0.35 px" style="stroke-width:0.35;stroke-miterlimit:4;stroke-dasharray:none;stroke-linecap:square;fill:none;fill-opacity:1;fill-rule: evenodd"/>
<path id="Sketch021_w0053"  d="M 61.9924618527917 119.83232938837922 L 84.47870792639566 119.83232938837922 L 84.47870792639566 116.06967758249014 L 61.9924618527917 116.06967758249014 L 61.9924618527917 119.83232938837922 " stroke="#000000" stroke-width="0.35 px" style="stroke-width:0.35;stroke-miterlimit:4;stroke-dasharray:none;stroke-linecap:square;fill:none;fill-opacity:1;fill-rule: evenodd"/>
<path id="Sketch021_w0054"  d="M 69.47870792639566 128.59498119426829 L 91.96495399999962 128.59498119426829 L 91.96495399999962 124.83232938837922 L 69.47870792639566 124.83232938837922 L 69.47870792639566 128.59498119426829 " stroke="#000000" stroke-width="0.35 px" style="stroke-width:0.35;stroke-miterlimit:4;stroke-dasharray:none;stroke-linecap:square;fill:none;fill-opacity:1;fill-rule: evenodd"/>
<path id="Sketch021_w0055"  d="M 61.9924618527917 138.83771761977576 L 84.47870792639566 138.83771761977576 L 84.47870792639566 135.07506581388668 L 61.9924618527917 135.07506581388668 L 61.9924618527917 138.83771761977576 " stroke="#000000" stroke-width="0.35 px" style="stroke-width:0.35;stroke-miterlimit:4;stroke-dasharray:none;stroke-linecap:square;fill:none;fill-opacity:1;fill-rule: evenodd"/>
<path id="Sketch021_w0056"  d="M 69.47870792639566 147.60036942566484 L 91.96495399999962 147.60036942566484 L 91.96495399999962 143.83771761977576 L 69.47870792639566 143.83771761977576 L 69.47870792639566 147.60036942566484 " stroke="#000000" stroke-width="0.35 px" style="stroke-width:0.35;stroke-miterlimit:4;stroke-dasharray:none;stroke-linecap:square;fill:none;fill-opacity:1;fill-rule: evenodd"/>
<path id="Sketch021_w0057"  d="M 61.9924618527917 157.8431058511723 L 84.47870792639566 157.8431058511723 L 84.47870792639566 154.08045404528323 L 61.9924618527917 154.08045404528323 L 61.9924618527917 157.8431058511723 " stroke="#000000" stroke-width="0.35 px" style="stroke-width:0.35;stroke-miterlimit:4;stroke-dasharray:none;stroke-linecap:square;fill:none;fill-opacity:1;fill-rule: evenodd"/>
<path id="Sketch021_w0058"  d="M 69.47870792639566 166.60575765706136 L 91.96495399999962 166.60575765706136 L 91.96495399999962 162.8431058511723 L 69.47870792639566 162.8431058511723 L 69.47870792639566 166.60575765706136 " stroke="#000000" stroke-width="0.35 px" style="stroke-width:0.35;stroke-miterlimit:4;stroke-dasharray:none;stroke-linecap:square;fill:none;fill-opacity:1;fill-rule: evenodd"/>
<path id="Sketch021_w0059"  d="M 61.9924618527917 176.84849408256883 L 84.47870792639566 176.84849408256883 L 84.47870792639566 173.08584227667976 L 61.9924618527917 173.08584227667976 L 61.9924618527917 176.84849408256883 " stroke="#000000" stroke-width="0.35 px" style="stroke-width:0.35;stroke-miterlimit:4;stroke-dasharray:none;stroke-linecap:square;fill:none;fill-opacity:1;fill-rule: evenodd"/>
<path id="Sketch021_w0060"  d="M 69.47870792639566 185.6111458884579 L 91.96495399999962 185.6111458884579 L 91.96495399999962 181.84849408256883 L 69.47870792639566 181.84849408256883 L 69.47870792639566 185.6111458884579 " stroke="#000000" stroke-width="0.35 px" style="stroke-width:0.35;stroke-miterlimit:4;stroke-dasharray:none;stroke-linecap:square;fill:none;fill-opacity:1;fill-rule: evenodd"/>
<path id="Sketch021_w0061"  d="M 93.98869277918753 5.799999999999999 L 116.46806188951932 5.799999999999999 L 116.46806188951932 2.164539351279953 L 93.98869277918753 2.164539351279953 L 93.98869277918753 5.799999999999999 " stroke="#000000" stroke-width="0.35 px" style="stroke-width:0.35;stroke-miterlimit:4;stroke-dasharray:none;stroke-linecap:square;fill:none;fill-opacity:1;fill-rule: evenodd"/>
<path id="Sketch021_w0062"  d="M 101.46806188951932 14.435460648720046 L 123.94743099985112 14.435460648720046 L 123.94743099985112 10.799999999999999 L 101.46806188951932 10.799999999999999 L 101.46806188951932 14.435460648720046 " stroke="#000000" stroke-width="0.35 px" style="stroke-width:0.35;stroke-miterlimit:4;stroke-dasharray:none;stroke-linecap:square;fill:none;fill-opacity:1;fill-rule: evenodd"/>
<path id="Sketch021_w0063"  d="M 93.98869277918755 24.805388231396538 L 116.46806188951933 24.805388231396538 L 116.46806188951933 21.16992758267649 L 93.98869277918755 21.16992758267649 L 93.98869277918755 24.805388231396538 " stroke="#000000" stroke-width="0.35 px" style="stroke-width:0.35;stroke-miterlimit:4;stroke-dasharray:none;stroke-linecap:square;fill:none;fill-opacity:1;fill-rule: evenodd"/>
<path id="Sketch021_w0064"  d="M 101.46806188951933 33.44084888011658 L 123.94743099985112 33.44084888011658 L 123.94743099985112 29.805388231396538 L 101.46806188951933 29.805388231396538 L 101.46806188951933 33.44084888011658 " stroke="#000000" stroke-width="0.35 px" style="stroke-width:0.35;stroke-miterlimit:4;stroke-dasharray:none;stroke-linecap:square;fill:none;fill-opacity:1;fill-rule: evenodd"/>
<path id="Sketch021_w0065"  d="M 93.98869277918755 43.81077646279307 L 116.46806188951933 43.81077646279307 L 116.46806188951933 40.17531581407303 L 93.98869277918755 40.17531581407303 L 93.98869277918755 43.81077646279307 " stroke="#000000" stroke-width="0.35 px" style="stroke-width:0.35;stroke-miterlimit:4;stroke-dasharray:none;stroke-linecap:square;fill:none;fill-opacity:1;fill-rule: evenodd"/>
<path id="Sketch021_w0066"  d="M 101.46806188951933 52.44623711151312 L 123.94743099985112 52.44623711151312 L 123.94743099985112 48.81077646279307 L 101.46806188951933 48.81077646279307 L 101.46806188951933 52.44623711151312 " stroke="#000000" stroke-width="0.35 px" style="stroke-width:0.35;stroke-miterlimit:4;stroke-dasharray:none;stroke-linecap:square;fill:none;fill-opacity:1;fill-rule: evenodd"/>
<path id="Sketch021_w0067"  d="M 93.98869277918755 62.81616469418961 L 116.46806188951933 62.81616469418961 L 116.46806188951933 59.18070404546957 L 93.98869277918755 59.18070404546957 L 93.98869277918755 62.81616469418961 " stroke="#000000" stroke-width="0.35 px" style="stroke-width:0.35;stroke-miterlimit:4;stroke-dasharray:none;stroke-linecap:square;fill:none;fill-opacity:1;fill-rule: evenodd"/>
<path id="Sketch021_w0068"  d="M 101.46806188951933 71.45162534290965 L 123.94743099985112 71.45162534290965 L 123.94743099985112 67.81616469418961 L 101.46806188951933 67.81616469418961 L 101.46806188951933 71.45162534290965 " stroke="#000000" stroke-width="0.35 px" style="stroke-width:0.35;stroke-miterlimit:4;stroke-dasharray:none;stroke-linecap:square;fill:none;fill-opacity:1;fill-rule: evenodd"/>
<path id="Sketch021_w0069"  d="M 93.98869277918755 81.82155292558615 L 116.46806188951933 81.82155292558615 L 116.46806188951933 78.1860922768661 L 93.98869277918755 78.1860922768661 L 93.98869277918755 81.82155292558615 " stroke="#000000" stroke-width="0.35 px" style="stroke-width:0.35;stroke-miterlimit:4;stroke-dasharray:none;stroke-linecap:square;fill:none;fill-opacity:1;fill-rule: evenodd"/>
<path id="Sketch021_w0070"  d="M 101.46806188951933 90.45701357430619 L 123.94743099985112 90.45701357430619 L 123.94743099985112 86.82155292558615 L 101.46806188951933 86.82155292558615 L 101.46806188951933 90.45701357430619 " stroke="#000000" stroke-width="0.35 px" style="stroke-width:0.35;stroke-miterlimit:4;stroke-dasharray:none;stroke-linecap:square;fill:none;fill-opacity:1;fill-rule: evenodd"/>
<path id="Sketch021_w0071"  d="M 93.98869277918755 100.82694115698268 L 116.46806188951933 100.82694115698268 L 116.46806188951933 97.19148050826264 L 93.98869277918755 97.19148050826264 L 93.98869277918755 100.82694115698268 " stroke="#000000" stroke-width="0.35 px" style="stroke-width:0.35;stroke-miterlimit:4;stroke-dasharray:none;stroke-linecap:square;fill:none;fill-opacity:1;fill-rule: evenodd"/>
<path id="Sketch021_w0072"  d="M 101.46806188951933 109.46240180570273 L 123.94743099985112 109.46240180570273 L 123.94743099985112 105.82694115698268 L 101.46806188951933 105.82694115698268 L 101.46806188951933 109.46240180570273 " stroke="#000000" stroke-width="0.35 px" style="stroke-width:0.35;stroke-miterlimit:4;stroke-dasharray:none;stroke-linecap:square;fill:none;fill-opacity:1;fill-rule: evenodd"/>
<path id="Sketch021_w0073"  d="M 93.98869277918755 119.83232938837922 L 116.46806188951933 119.83232938837922 L 116.46806188951933 116.19686873965918 L 93.98869277918755 116.19686873965918 L 93.98869277918755 119.83232938837922 " stroke="#000000" stroke-width="0.35 px" style="stroke-width:0.35;stroke-miterlimit:4;stroke-dasharray:none;stroke-linecap:square;fill:none;fill-opacity:1;fill-rule: evenodd"/>
<path id="Sketch021_w0074"  d="M 101.46806188951933 128.46779003709926 L 123.94743099985112 128.46779003709926 L 123.94743099985112 124.83232938837922 L 101.46806188951933 124.83232938837922 L 101.46806188951933 128.46779003709926 " stroke="#000000" stroke-width="0.35 px" style="stroke-width:0.35;stroke-miterlimit:4;stroke-dasharray:none;stroke-linecap:square;fill:none;fill-opacity:1;fill-rule: evenodd"/>
<path id="Sketch021_w0075"  d="M 93.98869277918755 138.83771761977576 L 116.46806188951933 138.83771761977576 L 116.46806188951933 135.2022569710557 L 93.98869277918755 135.2022569710557 L 93.98869277918755 138.83771761977576 " stroke="#000000" stroke-width="0.35 px" style="stroke-width:0.35;stroke-miterlimit:4;stroke-dasharray:none;stroke-linecap:square;fill:none;fill-opacity:1;fill-rule: evenodd"/>
<path id="Sketch021_w0076"  d="M 101.46806188951933 147.47317826849581 L 123.94743099985112 147.47317826849581 L 123.94743099985112 143.83771761977576 L 101.46806188951933 143.83771761977576 L 101.46806188951933 147.47317826849581 " stroke="#000000" stroke-width="0.35 px" style="stroke-width:0.35;stroke-miterlimit:4;stroke-dasharray:none;stroke-linecap:square;fill:none;fill-opacity:1;fill-rule: evenodd"/>
<path id="Sketch021_w0077"  d="M 93.98869277918755 157.8431058511723 L 116.46806188951933 157.8431058511723 L 116.46806188951933 154.20764520245226 L 93.98869277918755 154.20764520245226 L 93.98869277918755 157.8431058511723 " stroke="#000000" stroke-width="0.35 px" style="stroke-width:0.35;stroke-miterlimit:4;stroke-dasharray:none;stroke-linecap:square;fill:none;fill-opacity:1;fill-rule: evenodd"/>
<path id="Sketch021_w0078"  d="M 101.46806188951933 166.47856649989234 L 123.94743099985112 166.47856649989234 L 123.94743099985112 162.8431058511723 L 101.46806188951933 162.8431058511723 L 101.46806188951933 166.47856649989234 " stroke="#000000" stroke-width="0.35 px" style="stroke-width:0.35;stroke-miterlimit:4;stroke-dasharray:none;stroke-linecap:square;fill:none;fill-opacity:1;fill-rule: evenodd"/>
<path id="Sketch021_w0079"  d="M 93.98869277918755 176.84849408256883 L 116.46806188951933 176.84849408256883 L 116.46806188951933 173.21303343384878 L 93.98869277918755 173.21303343384878 L 93.98869277918755 176.84849408256883 " stroke="#000000" stroke-width="0.35 px" style="stroke-width:0.35;stroke-miterlimit:4;stroke-dasharray:none;stroke-linecap:square;fill:none;fill-opacity:1;fill-rule: evenodd"/>
<path id="Sketch021_w0080"  d="M 101.46806188951933 185.4839547312889 L 123.94743099985112 185.4839547312889 L 123.94743099985112 181.84849408256883 L 101.46806188951933 181.84849408256883 L 101.46806188951933 185.4839547312889 " stroke="#000000" stroke-width="0.35 px" style="stroke-width:0.35;stroke-miterlimit:4;stroke-dasharray:none;stroke-linecap:square;fill:none;fill-opacity:1;fill-rule: evenodd"/>
<path id="Sketch021_w0081"  d="M 125.98492370558338 5.799999999999999 L 148.457415852239 5.799999999999999 L 148.457415852239 2.518134325532618 L 125.98492370558338 2.518134325532618 L 125.98492370558338 5.799999999999999 " stroke="#000000" stroke-width="0.35 px" style="stroke-width:0.35;stroke-miterlimit:4;stroke-dasharray:none;stroke-linecap:square;fill:none;fill-opacity:1;fill-rule: evenodd"/>
<path id="Sketch021_w0082"  d="M 133.457415852239 14.08186567446738 L 155.9299079988946 14.08186567446738 L 155.9299079988946 10.799999999999999 L 133.457415852239 10.799999999999999 L 133.457415852239 14.08186567446738 " stroke="#000000" stroke-width="0.35 px" style="stroke-width:0.35;stroke-miterlimit:4;stroke-dasharray:none;stroke-linecap:square;fill:none;fill-opacity:1;fill-rule: evenodd"/>
<path id="Sketch021_w0083"  d="M 125.98492370558338 24.805388231396538 L 148.457415852239 24.805388231396538 L 148.457415852239 21.523522556929155 L 125.98492370558338 21.523522556929155 L 125.98492370558338 24.805388231396538 " stroke="#000000" stroke-width="0.35 px" style="stroke-width:0.35;stroke-miterlimit:4;stroke-dasharray:none;stroke-linecap:square;fill:none;fill-opacity:1;fill-rule: evenodd"/>
<path id="Sketch021_w0084"  d="M 133.457415852239 33.08725390586392 L 155.9299079988946 33.08725390586392 L 155.9299079988946 29.805388231396538 L 133.457415852239 29.805388231396538 L 133.457415852239 33.08725390586392 " stroke="#000000" stroke-width="0.35 px" style="stroke-width:0.35;stroke-miterlimit:4;stroke-dasharray:none;stroke-linecap:square;fill:none;fill-opacity:1;fill-rule: evenodd"/>
<path id="Sketch021_w0085"  d="M 125.98492370558338 43.81077646279307 L 148.457415852239 43.81077646279307 L 148.457415852239 40.528910788325696 L 125.98492370558338 40.528910788325696 L 125.98492370558338 43.81077646279307 " stroke="#000000" stroke-width="0.35 px" style="stroke-width:0.35;stroke-miterlimit:4;stroke-dasharray:none;stroke-linecap:square;fill:none;fill-opacity:1;fill-rule: evenodd"/>
<path id="Sketch021_w0086"  d="M 133.457415852239 52.092642137260455 L 155.9299079988946 52.092642137260455 L 155.9299079988946 48.81077646279307 L 133.457415852239 48.81077646279307 L 133.457415852239 52.092642137260455 " stroke="#000000" stroke-width="0.35 px" style="stroke-width:0.35;stroke-miterlimit:4;stroke-dasharray:none;stroke-linecap:square;fill:none;fill-opacity:1;fill-rule: evenodd"/>
<path id="Sketch021_w0087"  d="M 125.98492370558338 62.81616469418961 L 148.457415852239 62.81616469418961 L 148.457415852239 59.53429901972223 L 125.98492370558338 59.53429901972223 L 125.98492370558338 62.81616469418961 " stroke="#000000" stroke-width="0.35 px" style="stroke-width:0.35;stroke-miterlimit:4;stroke-dasharray:none;stroke-linecap:square;fill:none;fill-opacity:1;fill-rule: evenodd"/>
<path id="Sketch021_w0088"  d="M 133.457415852239 71.09803036865699 L 155.9299079988946 71.09803036865699 L 155.9299079988946 67.81616469418961 L 133.457415852239 67.81616469418961 L 133.457415852239 71.09803036865699 " stroke="#000000" stroke-width="0.35 px" style="stroke-width:0.35;stroke-miterlimit:4;stroke-dasharray:none;stroke-linecap:square;fill:none;fill-opacity:1;fill-rule: evenodd"/>
<path id="Sketch021_w0089"  d="M 125.98492370558338 81.82155292558615 L 148.457415852239 81.82155292558615 L 148.457415852239 78.53968725111876 L 125.98492370558338 78.53968725111876 L 125.98492370558338 81.82155292558615 " stroke="#000000" stroke-width="0.35 px" style="stroke-width:0.35;stroke-miterlimit:4;stroke-dasharray:none;stroke-linecap:square;fill:none;fill-opacity:1;fill-rule: evenodd"/>
<path id="Sketch021_w0090"  d="M 133.457415852239 90.10341860005353 L 155.9299079988946 90.10341860005353 L 155.9299079988946 86.82155292558615 L 133.457415852239 86.82155292558615 L 133.457415852239 90.10341860005353 " stroke="#000000" stroke-width="0.35 px" style="stroke-width:0.35;stroke-miterlimit:4;stroke-dasharray:none;stroke-linecap:square;fill:none;fill-opacity:1;fill-rule: evenodd"/>
<path id="Sketch021_w0091"  d="M 125.98492370558338 100.82694115698268 L 148.457415852239 100.82694115698268 L 148.457415852239 97.5450754825153 L 125.98492370558338 97.5450754825153 L 125.98492370558338 100.82694115698268 " stroke="#000000" stroke-width="0.35 px" style="stroke-width:0.35;stroke-miterlimit:4;stroke-dasharray:none;stroke-linecap:square;fill:none;fill-opacity:1;fill-rule: evenodd"/>
<path id="Sketch021_w0092"  d="M 133.457415852239 109.10880683145007 L 155.9299079988946 109.10880683145007 L 155.9299079988946 105.82694115698268 L 133.457415852239 105.82694115698268 L 133.457415852239 109.10880683145007 " stroke="#000000" stroke-width="0.35 px" style="stroke-width:0.35;stroke-miterlimit:4;stroke-dasharray:none;stroke-linecap:square;fill:none;fill-opacity:1;fill-rule: evenodd"/>
<path id="Sketch021_w0093"  d="M 125.98492370558338 119.83232938837922 L 148.457415852239 119.83232938837922 L 148.457415852239 116.55046371391184 L 125.98492370558338 116.55046371391184 L 125.98492370558338 119.83232938837922 " stroke="#000000" stroke-width="0.35 px" style="stroke-width:0.35;stroke-miterlimit:4;stroke-dasharray:none;stroke-linecap:square;fill:none;fill-opacity:1;fill-rule: evenodd"/>
<path id="Sketch021_w0094"  d="M 133.457415852239 128.1141950628466 L 155.9299079988946 128.1141950628466 L 155.9299079988946 124.83232938837922 L 133.457415852239 124.83232938837922 L 133.457415852239 128.1141950628466 " stroke="#000000" stroke-width="0.35 px" style="stroke-width:0.35;stroke-miterlimit:4;stroke-dasharray:none;stroke-linecap:square;fill:none;fill-opacity:1;fill-rule: evenodd"/>
<path id="Sketch021_w0095"  d="M 125.9849237055834 138.83771761977576 L 148.457415852239 138.83771761977576 L 148.457415852239 135.55585194530838 L 125.9849237055834 135.55585194530838 L 125.9849237055834 138.83771761977576 " stroke="#000000" stroke-width="0.35 px" style="stroke-width:0.35;stroke-miterlimit:4;stroke-dasharray:none;stroke-linecap:square;fill:none;fill-opacity:1;fill-rule: evenodd"/>
<path id="Sketch021_w0096"  d="M 133.457415852239 147.11958329424314 L 155.9299079988946 147.11958329424314 L 155.9299079988946 143.83771761977576 L 133.457415852239 143.83771761977576 L 133.457415852239 147.11958329424314 " stroke="#000000" stroke-width="0.35 px" style="stroke-width:0.35;stroke-miterlimit:4;stroke-dasharray:none;stroke-linecap:square;fill:none;fill-opacity:1;fill-rule: evenodd"/>
<path id="Sketch021_w0097"  d="M 125.9849237055834 157.8431058511723 L 148.457415852239 157.8431058511723 L 148.457415852239 154.56124017670493 L 125.9849237055834 154.56124017670493 L 125.9849237055834 157.8431058511723 " stroke="#000000" stroke-width="0.35 px" style="stroke-width:0.35;stroke-miterlimit:4;stroke-dasharray:none;stroke-linecap:square;fill:none;fill-opacity:1;fill-rule: evenodd"/>
<path id="Sketch021_w0098"  d="M 133.457415852239 166.12497152563967 L 155.9299079988946 166.12497152563967 L 155.9299079988946 162.8431058511723 L 133.457415852239 162.8431058511723 L 133.457415852239 166.12497152563967 " stroke="#000000" stroke-width="0.35 px" style="stroke-width:0.35;stroke-miterlimit:4;stroke-dasharray:none;stroke-linecap:square;fill:none;fill-opacity:1;fill-rule: evenodd"/>
<path id="Sketch021_w0099"  d="M 125.9849237055834 176.84849408256883 L 148.457415852239 176.84849408256883 L 148.457415852239 173.56662840810145 L 125.9849237055834 173.56662840810145 L 125.9849237055834 176.84849408256883 " stroke="#000000" stroke-width="0.35 px" style="stroke-width:0.35;stroke-miterlimit:4;stroke-dasharray:none;stroke-linecap:square;fill:none;fill-opacity:1;fill-rule: evenodd"/>
<path id="Sketch021_w0100"  d="M 133.457415852239 185.13035975703622 L 155.9299079988946 185.13035975703622 L 155.9299079988946 181.84849408256883 L 133.457415852239 181.84849408256883 L 133.457415852239 185.13035975703622 " stroke="#000000" stroke-width="0.35 px" style="stroke-width:0.35;stroke-miterlimit:4;stroke-dasharray:none;stroke-linecap:square;fill:none;fill-opacity:1;fill-rule: evenodd"/>
<title>b'Sketch021'</title>
</g>
</svg>