<?xml version="1.0"?>
<!DOCTYPE svg PUBLIC "-//W3C//DTD SVG 1.1//EN" "http://www.w3.org/Graphics/SVG/1.1/DTD/svg11.dtd">
<svg width="173.39999999999998mm" height="197.89999999999998mm" viewBox="0 0 173.39999999999998 197.89999999999998" xmlns="http://www.w3.org/2000/svg" version="1.1">
<g id="Sketch021" transform="translate(9.700000,192.700000) scale(1,-1)">
<path id="Sketch021_w0000"  d="M 161.99999999999918 191.0 L -8.0 191.0 L -8.0 172.5 L -3.7 172.5 L -3.7 150.0 L -8.0 150.0 L -8.0 128.5 L -3.7 128.5 L -3.7 106.0 L -8.0 106.0 L -8.0 84.5 L -3.6999999999999993 84.5 L -3.6999999999999993 62.0 L -8.0 62.0 L -8.0 40.5 L -3.700000000000001 40.5 L -3.700000000000001 18.0 L -8.0 18.0 L -8.0 -3.5 L 8.0 -3.5 L 9.5 2.5 L 144.5 2.5 L 145.0 -3.5 L 162.0 -3.5 L 162.0 18.0 L 157.7 18.0 L 157.7 40.5 L 162.0 40.5 L 162.0 62.0 L 157.7 62.0 L 157.7 84.5 L 162.0 84.5 L 162.0 106.0 L 157.7 106.0 L 157.7 128.5 L 162.0 128.5 L 162.0 150.0 L 157.7 150.0 L 157.69999999999916 172.5 L 161.99999999999918 172.5 L 161.99999999999918 191.0 " stroke="#000000" stroke-width="0.35 px" style="stroke-width:0.35;stroke-miterlimit:4;stroke-dasharray:none;stroke-linecap:square;fill:none;fill-opacity:1;fill-rule: evenodd"/>
<path id="Sketch021_w0001"  d="M -2.0 6.8 L 20.5 6.8 L 20.5 2.5 L -2.0 2.5 L -2.0 6.8 " stroke="#000000" stroke-width="0.35 px" style="stroke-width:0.35;stroke-miterlimit:4;stroke-dasharray:none;stroke-linecap:square;fill:none;fill-opacity:1;fill-rule: evenodd"/>
<path id="Sketch021_w0002"  d="M 5.5 16.099999999999998 L 28.0 16.099999999999998 L 28.0 11.8 L 5.5 11.8 L 5.5 16.099999999999998 " stroke="#000000" stroke-width="0.35 px" style="stroke-width:0.35;stroke-miterlimit:4;stroke-dasharray:none;stroke-linecap:square;fill:none;fill-opacity:1;fill-rule: evenodd"/>
<path id="Sketch021_w0003"  d="M -1.999999999999999 25.805388231396538 L 20.5 25.805388231396538 L 20.5 21.505388231396537 L -1.9999999999999996 21.505388231396537 L -1.999999999999999 25.805388231396538 " stroke="#000000" stroke-width="0.35 px" style="stroke-width:0.35;stroke-miterlimit:4;stroke-dasharray:none;stroke-linecap:square;fill:none;fill-opacity:1;fill-rule: evenodd"/>
<path id="Sketch021_w0004"  d="M 5.5 35.10538823139654 L 28.0 35.10538823139654 L 28.0 30.805388231396538 L 5.5 30.805388231396538 L 5.5 35.10538823139654 " stroke="#000000" stroke-width="0.35 px" style="stroke-width:0.35;stroke-miterlimit:4;stroke-dasharray:none;stroke-linecap:square;fill:none;fill-opacity:1;fill-rule: evenodd"/>
<path id="Sketch021_w0005"  d="M -1.9999999999999978 44.81077646279308 L 20.5 44.81077646279308 L 20.5 40.510776462793075 L -1.9999999999999971 40.510776462793075 L -1.9999999999999978 44.81077646279308 " stroke="#000000" stroke-width="0.35 px" style="stroke-width:0.35;stroke-miterlimit:4;stroke-dasharray:none;stroke-linecap:square;fill:none;fill-opacity:1;fill-rule: evenodd"/>
<path id="Sketch021_w0006"  d="M 5.500000000000001 54.110776462793076 L 28.0 54.110776462793076 L 28.0 49.81077646279308 L 5.5 49.81077646279308 L 5.500000000000001 54.110776462793076 " stroke="#000000" stroke-width="0.35 px" style="stroke-width:0.35;stroke-miterlimit:4;stroke-dasharray:none;stroke-linecap:square;fill:none;fill-opacity:1;fill-rule: evenodd"/>
<path id="Sketch021_w0007"  d="M -1.9999999999999964 63.81616469418962 L 20.500000000000004 63.81616469418962 L 20.500000000000004 59.51616469418961 L -1.9999999999999964 59.51616469418961 L -1.9999999999999964 63.81616469418962 " stroke="#000000" stroke-width="0.35 px" style="stroke-width:0.35;stroke-miterlimit:4;stroke-dasharray:none;stroke-linecap:square;fill:none;fill-opacity:1;fill-rule: evenodd"/>
<path id="Sketch021_w0008"  d="M 5.5000000000000036 73.11616469418962 L 28.000000000000004 73.11616469418962 L 28.000000000000004 68.81616469418961 L 5.5000000000000036 68.81616469418961 L 5.5000000000000036 73.11616469418962 " stroke="#000000" stroke-width="0.35 px" style="stroke-width:0.35;stroke-miterlimit:4;stroke-dasharray:none;stroke-linecap:square;fill:none;fill-opacity:1;fill-rule: evenodd"/>
<path id="Sketch021_w0009"  d="M -1.9999999999999953 82.82155292558615 L 20.500000000000004 82.82155292558615 L 20.500000000000004 78.52155292558615 L -1.999999999999996 78.52155292558615 L -1.9999999999999953 82.82155292558615 " stroke="#000000" stroke-width="0.35 px" style="stroke-width:0.35;stroke-miterlimit:4;stroke-dasharray:none;stroke-linecap:square;fill:none;fill-opacity:1;fill-rule: evenodd"/>
<path id="Sketch021_w0010"  d="M 5.5000000000000036 92.12155292558616 L 28.000000000000004 92.12155292558616 L 28.000000000000004 87.82155292558615 L 5.5000000000000036 87.82155292558615 L 5.5000000000000036 92.12155292558616 " stroke="#000000" stroke-width="0.35 px" style="stroke-width:0.35;stroke-miterlimit:4;stroke-dasharray:none;stroke-linecap:square;fill:none;fill-opacity:1;fill-rule: evenodd"/>
<path id="Sketch021_w0011"  d="M -1.9999999999999942 101.82694115698268 L 20.500000000000007 101.82694115698268 L 20.500000000000007 97.52694115698269 L -1.9999999999999936 97.52694115698269 L -1.9999999999999942 101.82694115698268 " stroke="#000000" stroke-width="0.35 px" style="stroke-width:0.35;stroke-miterlimit:4;stroke-dasharray:none;stroke-linecap:square;fill:none;fill-opacity:1;fill-rule: evenodd"/>
<path id="Sketch021_w0012"  d="M 5.500000000000006 111.1269411569827 L 28.000000000000007 111.1269411569827 L 28.000000000000007 106.82694115698268 L 5.500000000000007 106.82694115698268 L 5.500000000000006 111.1269411569827 " stroke="#000000" stroke-width="0.35 px" style="stroke-width:0.35;stroke-miterlimit:4;stroke-dasharray:none;stroke-linecap:square;fill:none;fill-opacity:1;fill-rule: evenodd"/>
<path id="Sketch021_w0013"  d="M -1.9999999999999931 120.83232938837922 L 20.500000000000007 120.83232938837922 L 20.500000000000007 116.53232938837922 L -1.999999999999993 116.53232938837922 L -1.9999999999999931 120.83232938837922 " stroke="#000000" stroke-width="0.35 px" style="stroke-width:0.35;stroke-miterlimit:4;stroke-dasharray:none;stroke-linecap:square;fill:none;fill-opacity:1;fill-rule: evenodd"/>
<path id="Sketch021_w0014"  d="M 5.500000000000007 130.13232938837922 L 28.000000000000004 130.13232938837922 L 28.000000000000004 125.83232938837922 L 5.500000000000007 125.83232938837922 L 5.500000000000007 130.13232938837922 " stroke="#000000" stroke-width="0.35 px" style="stroke-width:0.35;stroke-miterlimit:4;stroke-dasharray:none;stroke-linecap:square;fill:none;fill-opacity:1;fill-rule: evenodd"/>
<path id="Sketch021_w0015"  d="M -1.9999999999999918 139.83771761977576 L 20.500000000000007 139.83771761977576 L 20.500000000000007 135.53771761977578 L -1.9999999999999925 135.53771761977578 L -1.9999999999999918 139.83771761977576 " stroke="#000000" stroke-width="0.35 px" style="stroke-width:0.35;stroke-miterlimit:4;stroke-dasharray:none;stroke-linecap:square;fill:none;fill-opacity:1;fill-rule: evenodd"/>
<path id="Sketch021_w0016"  d="M 5.500000000000009 149.13771761977577 L 28.000000000000007 149.13771761977577 L 28.000000000000007 144.83771761977576 L 5.500000000000008 144.83771761977576 L 5.500000000000009 149.13771761977577 " stroke="#000000" stroke-width="0.35 px" style="stroke-width:0.35;stroke-miterlimit:4;stroke-dasharray:none;stroke-linecap:square;fill:none;fill-opacity:1;fill-rule: evenodd"/>
<path id="Sketch021_w0017"  d="M -1.9999999999999907 158.8431058511723 L 20.50000000000001 158.8431058511723 L 20.50000000000001 154.5431058511723 L -1.99999999999999 154.5431058511723 L -1.9999999999999907 158.8431058511723 " stroke="#000000" stroke-width="0.35 px" style="stroke-width:0.35;stroke-miterlimit:4;stroke-dasharray:none;stroke-linecap:square;fill:none;fill-opacity:1;fill-rule: evenodd"/>
<path id="Sketch021_w0018"  d="M 5.50000000000001 168.1431058511723 L 28.00000000000001 168.1431058511723 L 28.00000000000001 163.8431058511723 L 5.500000000000011 163.8431058511723 L 5.50000000000001 168.1431058511723 " stroke="#000000" stroke-width="0.35 px" style="stroke-width:0.35;stroke-miterlimit:4;stroke-dasharray:none;stroke-linecap:square;fill:none;fill-opacity:1;fill-rule: evenodd"/>
<path id="Sketch021_w0019"  d="M -1.9999999999999896 177.84849408256883 L 20.50000000000001 177.84849408256883 L 20.50000000000001 173.54849408256885 L -1.9999999999999893 173.54849408256885 L -1.9999999999999896 177.84849408256883 " stroke="#000000" stroke-width="0.35 px" style="stroke-width:0.35;stroke-miterlimit:4;stroke-dasharray:none;stroke-linecap:square;fill:none;fill-opacity:1;fill-rule: evenodd"/>
<path id="Sketch021_w0020"  d="M 5.500000000000011 187.14849408256885 L 28.000000000000007 187.14849408256885 L 28.000000000000007 182.84849408256883 L 5.500000000000011 182.84849408256883 L 5.500000000000011 187.14849408256885 " stroke="#000000" stroke-width="0.35 px" style="stroke-width:0.35;stroke-miterlimit:4;stroke-dasharray:none;stroke-linecap:square;fill:none;fill-opacity:1;fill-rule: evenodd"/>
<path id="Sketch021_w0021"  d="M 29.996230926395846 6.800000000000002 L 52.48935681462984 6.800000000000002 L 52.48935681462984 3.415395618179489 L 29.996230926395846 3.415395618179489 L 29.996230926395846 6.800000000000002 " stroke="#000000" stroke-width="0.35 px" style="stroke-width:0.35;stroke-miterlimit:4;stroke-dasharray:none;stroke-linecap:square;fill:none;fill-opacity:1;fill-rule: evenodd"/>
<path id="Sketch021_w0022"  d="M 37.48935681462984 15.184604381820513 L 59.982482702863834 15.184604381820513 L 59.982482702863834 11.8 L 37.48935681462984 11.8 L 37.48935681462984 15.184604381820513 " stroke="#000000" stroke-width="0.35 px" style="stroke-width:0.35;stroke-miterlimit:4;stroke-dasharray:none;stroke-linecap:square;fill:none;fill-opacity:1;fill-rule: evenodd"/>
<path id="Sketch021_w0023"  d="M 29.996230926395846 25.805388231396538 L 52.48935681462984 25.805388231396538 L 52.48935681462984 22.420783849576026 L 29.996230926395846 22.420783849576026 L 29.996230926395846 25.805388231396538 " stroke="#000000" stroke-width="0.35 px" style="stroke-width:0.35;stroke-miterlimit:4;stroke-dasharray:none;stroke-linecap:square;fill:none;fill-opacity:1;fill-rule: evenodd"/>
<path id="Sketch021_w0024"  d="M 37.48935681462984 34.18999261321705 L 59.982482702863834 34.18999261321705 L 59.982482702863834 30.805388231396538 L 37.48935681462984 30.805388231396538 L 37.48935681462984 34.18999261321705 " stroke="#000000" stroke-width="0.35 px" style="stroke-width:0.35;stroke-miterlimit:4;stroke-dasharray:none;stroke-linecap:square;fill:none;fill-opacity:1;fill-rule: evenodd"/>
<path id="Sketch021_w0025"  d="M 29.99623092639585 44.81077646279307 L 52.48935681462984 44.81077646279307 L 52.48935681462984 41.42617208097256 L 29.99623092639585 41.42617208097256 L 29.99623092639585 44.81077646279307 " stroke="#000000" stroke-width="0.35 px" style="stroke-width:0.35;stroke-miterlimit:4;stroke-dasharray:none;stroke-linecap:square;fill:none;fill-opacity:1;fill-rule: evenodd"/>
<path id="Sketch021_w0026"  d="M 37.48935681462984 53.19538084461359 L 59.98248270286384 53.19538084461359 L 59.98248270286384 49.81077646279307 L 37.48935681462984 49.81077646279307 L 37.48935681462984 53.19538084461359 " stroke="#000000" stroke-width="0.35 px" style="stroke-width:0.35;stroke-miterlimit:4;stroke-dasharray:none;stroke-linecap:square;fill:none;fill-opacity:1;fill-rule: evenodd"/>
<path id="Sketch021_w0027"  d="M 29.99623092639585 63.81616469418961 L 52.48935681462984 63.81616469418961 L 52.48935681462984 60.4315603123691 L 29.99623092639585 60.4315603123691 L 29.99623092639585 63.81616469418961 " stroke="#000000" stroke-width="0.35 px" style="stroke-width:0.35;stroke-miterlimit:4;stroke-dasharray:none;stroke-linecap:square;fill:none;fill-opacity:1;fill-rule: evenodd"/>
<path id="Sketch021_w0028"  d="M 37.48935681462984 72.20076907601012 L 59.98248270286384 72.20076907601012 L 59.98248270286384 68.81616469418961 L 37.48935681462984 68.81616469418961 L 37.48935681462984 72.20076907601012 " stroke="#000000" stroke-width="0.35 px" style="stroke-width:0.35;stroke-miterlimit:4;stroke-dasharray:none;stroke-linecap:square;fill:none;fill-opacity:1;fill-rule: evenodd"/>
<path id="Sketch021_w0029"  d="M 29.99623092639585 82.82155292558615 L 52.48935681462984 82.82155292558615 L 52.48935681462984 79.43694854376564 L 29.99623092639585 79.43694854376564 L 29.99623092639585 82.82155292558615 " stroke="#000000" stroke-width="0.35 px" style="stroke-width:0.35;stroke-miterlimit:4;stroke-dasharray:none;stroke-linecap:square;fill:none;fill-opacity:1;fill-rule: evenodd"/>
<path id="Sketch021_w0030"  d="M 37.48935681462984 91.20615730740666 L 59.98248270286384 91.20615730740666 L 59.98248270286384 87.82155292558615 L 37.48935681462984 87.82155292558615 L 37.48935681462984 91.20615730740666 " stroke="#000000" stroke-width="0.35 px" style="stroke-width:0.35;stroke-miterlimit:4;stroke-dasharray:none;stroke-linecap:square;fill:none;fill-opacity:1;fill-rule: evenodd"/>
<path id="Sketch021_w0031"  d="M 29.996230926395853 101.82694115698268 L 52.48935681462984 101.82694115698268 L 52.48935681462984 98.44233677516218 L 29.996230926395853 98.44233677516218 L 29.996230926395853 101.82694115698268 " stroke="#000000" stroke-width="0.35 px" style="stroke-width:0.35;stroke-miterlimit:4;stroke-dasharray:none;stroke-linecap:square;fill:none;fill-opacity:1;fill-rule: evenodd"/>
<path id="Sketch021_w0032"  d="M 37.48935681462984 110.2115455388032 L 59.98248270286384 110.2115455388032 L 59.98248270286384 106.82694115698268 L 37.48935681462984 106.82694115698268 L 37.48935681462984 110.2115455388032 " stroke="#000000" stroke-width="0.35 px" style="stroke-width:0.35;stroke-miterlimit:4;stroke-dasharray:none;stroke-linecap:square;fill:none;fill-opacity:1;fill-rule: evenodd"/>
<path id="Sketch021_w0033"  d="M 29.996230926395853 120.83232938837922 L 52.48935681462985 120.83232938837922 L 52.48935681462985 117.44772500655871 L 29.996230926395853 117.44772500655871 L 29.996230926395853 120.83232938837922 " stroke="#000000" stroke-width="0.35 px" style="stroke-width:0.35;stroke-miterlimit:4;stroke-dasharray:none;stroke-linecap:square;fill:none;fill-opacity:1;fill-rule: evenodd"/>
<path id="Sketch021_w0034"  d="M 37.48935681462985 129.21693377019974 L 59.98248270286384 129.21693377019974 L 59.98248270286384 125.83232938837922 L 37.48935681462985 125.83232938837922 L 37.48935681462985 129.21693377019974 " stroke="#000000" stroke-width="0.35 px" style="stroke-width:0.35;stroke-miterlimit:4;stroke-dasharray:none;stroke-linecap:square;fill:none;fill-opacity:1;fill-rule: evenodd"/>
<path id="Sketch021_w0035"  d="M 29.996230926395853 139.83771761977576 L 52.48935681462985 139.83771761977576 L 52.48935681462985 136.45311323795525 L 29.996230926395853 136.45311323795525 L 29.996230926395853 139.83771761977576 " stroke="#000000" stroke-width="0.35 px" style="stroke-width:0.35;stroke-miterlimit:4;stroke-dasharray:none;stroke-linecap:square;fill:none;fill-opacity:1;fill-rule: evenodd"/>
<path id="Sketch021_w0036"  d="M 37.48935681462985 148.22232200159627 L 59.98248270286384 148.22232200159627 L 59.98248270286384 144.83771761977576 L 37.48935681462985 144.83771761977576 L 37.48935681462985 148.22232200159627 " stroke="#000000" stroke-width="0.35 px" style="stroke-width:0.35;stroke-miterlimit:4;stroke-dasharray:none;stroke-linecap:square;fill:none;fill-opacity:1;fill-rule: evenodd"/>
<path id="Sketch021_w0037"  d="M 29.996230926395857 158.8431058511723 L 52.48935681462985 158.8431058511723 L 52.48935681462985 155.4585014693518 L 29.996230926395857 155.4585014693518 L 29.996230926395857 158.8431058511723 " stroke="#000000" stroke-width="0.35 px" style="stroke-width:0.35;stroke-miterlimit:4;stroke-dasharray:none;stroke-linecap:square;fill:none;fill-opacity:1;fill-rule: evenodd"/>
<path id="Sketch021_w0038"  d="M 37.48935681462985 167.22771023299282 L 59.98248270286384 167.22771023299282 L 59.98248270286384 163.8431058511723 L 37.48935681462985 163.8431058511723 L 37.48935681462985 167.22771023299282 " stroke="#000000" stroke-width="0.35 px" style="stroke-width:0.35;stroke-miterlimit:4;stroke-dasharray:none;stroke-linecap:square;fill:none;fill-opacity:1;fill-rule: evenodd"/>
<path id="Sketch021_w0039"  d="M 29.996230926395857 177.84849408256883 L 52.48935681462985 177.84849408256883 L 52.48935681462985 174.46388970074833 L 29.996230926395857 174.46388970074833 L 29.996230926395857 177.84849408256883 " stroke="#000000" stroke-width="0.35 px" style="stroke-width:0.35;stroke-miterlimit:4;stroke-dasharray:none;stroke-linecap:square;fill:none;fill-opacity:1;fill-rule: evenodd"/>
<path id="Sketch021_w0040"  d="M 37.48935681462985 186.23309846438934 L 59.98248270286385 186.23309846438934 L 59.98248270286385 182.84849408256883 L 37.48935681462985 182.84849408256883 L 37.48935681462985 186.23309846438934 " stroke="#000000" stroke-width="0.35 px" style="stroke-width:0.35;stroke-miterlimit:4;stroke-dasharray:none;stroke-linecap:square;fill:none;fill-opacity:1;fill-rule: evenodd"/>
<path id="Sketch021_w0041"  d="M 61.99246185279169 6.800000000000002 L 84.47870792625064 6.800000000000002 L 84.47870792625064 3.37570152480004 L 61.99246185279169 3.37570152480004 L 61.99246185279169 6.800000000000002 " stroke="#000000" stroke-width="0.35 px" style="stroke-width:0.35;stroke-miterlimit:4;stroke-dasharray:none;stroke-linecap:square;fill:none;fill-opacity:1;fill-rule: evenodd"/>
<path id="Sketch021_w0042"  d="M 69.47870792625064 15.224298475199962 L 91.96495399970956 15.224298475199962 L 91.96495399970956 11.8 L 69.47870792625064 11.8 L 69.47870792625064 15.224298475199962 " stroke="#000000" stroke-width="0.35 px" style="stroke-width:0.35;stroke-miterlimit:4;stroke-dasharray:none;stroke-linecap:square;fill:none;fill-opacity:1;fill-rule: evenodd"/>
<path id="Sketch021_w0043"  d="M 61.99246185279169 25.805388231396538 L 84.47870792625064 25.805388231396538 L 84.47870792625064 22.381089756196577 L 61.99246185279169 22.381089756196577 L 61.99246185279169 25.805388231396538 " stroke="#000000" stroke-width="0.35 px" style="stroke-width:0.35;stroke-miterlimit:4;stroke-dasharray:none;stroke-linecap:square;fill:none;fill-opacity:1;fill-rule: evenodd"/>
<path id="Sketch021_w0044"  d="M 69.47870792625064 34.229686706596496 L 91.96495399970956 34.229686706596496 L 91.96495399970956 30.805388231396538 L 69.47870792625064 30.805388231396538 L 69.47870792625064 34.229686706596496 " stroke="#000000" stroke-width="0.35 px" style="stroke-width:0.35;stroke-miterlimit:4;stroke-dasharray:none;stroke-linecap:square;fill:none;fill-opacity:1;fill-rule: evenodd"/>
<path id="Sketch021_w0045"  d="M 61.99246185279169 44.81077646279308 L 84.47870792625064 44.81077646279308 L 84.47870792625064 41.38647798759312 L 61.99246185279169 41.38647798759312 L 61.99246185279169 44.81077646279308 " stroke="#000000" stroke-width="0.35 px" style="stroke-width:0.35;stroke-miterlimit:4;stroke-dasharray:none;stroke-linecap:square;fill:none;fill-opacity:1;fill-rule: evenodd"/>
<path id="Sketch021_w0046"  d="M 69.47870792625064 53.23507493799303 L 91.96495399970958 53.23507493799303 L 91.96495399970958 49.81077646279308 L 69.47870792625064 49.81077646279308 L 69.47870792625064 53.23507493799303 " stroke="#000000" stroke-width="0.35 px" style="stroke-width:0.35;stroke-miterlimit:4;stroke-dasharray:none;stroke-linecap:square;fill:none;fill-opacity:1;fill-rule: evenodd"/>
<path id="Sketch021_w0047"  d="M 61.99246185279169 63.81616469418962 L 84.47870792625064 63.81616469418962 L 84.47870792625064 60.391866218989655 L 61.99246185279169 60.391866218989655 L 61.99246185279169 63.81616469418962 " stroke="#000000" stroke-width="0.35 px" style="stroke-width:0.35;stroke-miterlimit:4;stroke-dasharray:none;stroke-linecap:square;fill:none;fill-opacity:1;fill-rule: evenodd"/>
<path id="Sketch021_w0048"  d="M 69.47870792625064 72.24046316938957 L 91.96495399970958 72.24046316938957 L 91.96495399970958 68.81616469418961 L 69.47870792625064 68.81616469418961 L 69.47870792625064 72.24046316938957 " stroke="#000000" stroke-width="0.35 px" style="stroke-width:0.35;stroke-miterlimit:4;stroke-dasharray:none;stroke-linecap:square;fill:none;fill-opacity:1;fill-rule: evenodd"/>
<path id="Sketch021_w0049"  d="M 61.9924618527917 82.82155292558615 L 84.47870792625064 82.82155292558615 L 84.47870792625064 79.39725445038619 L 61.9924618527917 79.39725445038619 L 61.9924618527917 82.82155292558615 " stroke="#000000" stroke-width="0.35 px" style="stroke-width:0.35;stroke-miterlimit:4;stroke-dasharray:none;stroke-linecap:square;fill:none;fill-opacity:1;fill-rule: evenodd"/>
<path id="Sketch021_w0050"  d="M 69.47870792625064 91.24585140078611 L 91.96495399970958 91.24585140078611 L 91.96495399970958 87.82155292558615 L 69.47870792625064 87.82155292558615 L 69.47870792625064 91.24585140078611 " stroke="#000000" stroke-width="0.35 px" style="stroke-width:0.35;stroke-miterlimit:4;stroke-dasharray:none;stroke-linecap:square;fill:none;fill-opacity:1;fill-rule: evenodd"/>
<path id="Sketch021_w0051"  d="M 61.9924618527917 101.82694115698268 L 84.47870792625064 101.82694115698268 L 84.47870792625064 98.40264268178272 L 61.9924618527917 98.40264268178272 L 61.9924618527917 101.82694115698268 " stroke="#000000" stroke-width="0.35 px" style="stroke-width:0.35;stroke-miterlimit:4;stroke-dasharray:none;stroke-linecap:square;fill:none;fill-opacity:1;fill-rule: evenodd"/>
<path id="Sketch021_w0052"  d="M 69.47870792625064 110.25123963218265 L 91.96495399970958 110.25123963218265 L 91.96495399970958 106.82694115698268 L 69.47870792625064 106.82694115698268 L 69.47870792625064 110.25123963218265 " stroke="#000000" stroke-width="0.35 px" style="stroke-width:0.35;stroke-miterlimit:4;stroke-dasharray:none;stroke-linecap:square;fill:none;fill-opacity:1;fill-rule: evenodd"/>
<path id="Sketch021_w0053"  d="M 61.9924618527917 120.83232938837922 L 84.47870792625064 120.83232938837922 L 84.47870792625064 117.40803091317926 L 61.9924618527917 117.40803091317926 L 61.9924618527917 120.83232938837922 " stroke="#000000" stroke-width="0.35 px" style="stroke-width:0.35;stroke-miterlimit:4;stroke-dasharray:none;stroke-linecap:square;fill:none;fill-opacity:1;fill-rule: evenodd"/>
<path id="Sketch021_w0054"  d="M 69.47870792625064 129.25662786357918 L 91.96495399970958 129.25662786357918 L 91.96495399970958 125.83232938837922 L 69.47870792625064 125.83232938837922 L 69.47870792625064 129.25662786357918 " stroke="#000000" stroke-width="0.35 px" style="stroke-width:0.35;stroke-miterlimit:4;stroke-dasharray:none;stroke-linecap:square;fill:none;fill-opacity:1;fill-rule: evenodd"/>
<path id="Sketch021_w0055"  d="M 61.9924618527917 139.83771761977576 L 84.47870792625064 139.83771761977576 L 84.47870792625064 136.4134191445758 L 61.9924618527917 136.4134191445758 L 61.9924618527917 139.83771761977576 " stroke="#000000" stroke-width="0.35 px" style="stroke-width:0.35;stroke-miterlimit:4;stroke-dasharray:none;stroke-linecap:square;fill:none;fill-opacity:1;fill-rule: evenodd"/>
<path id="Sketch021_w0056"  d="M 69.47870792625064 148.26201609497573 L 91.96495399970958 148.26201609497573 L 91.96495399970958 144.83771761977576 L 69.47870792625064 144.83771761977576 L 69.47870792625064 148.26201609497573 " stroke="#000000" stroke-width="0.35 px" style="stroke-width:0.35;stroke-miterlimit:4;stroke-dasharray:none;stroke-linecap:square;fill:none;fill-opacity:1;fill-rule: evenodd"/>
<path id="Sketch021_w0057"  d="M 61.9924618527917 158.8431058511723 L 84.47870792625064 158.8431058511723 L 84.47870792625064 155.41880737597234 L 61.9924618527917 155.41880737597234 L 61.9924618527917 158.8431058511723 " stroke="#000000" stroke-width="0.35 px" style="stroke-width:0.35;stroke-miterlimit:4;stroke-dasharray:none;stroke-linecap:square;fill:none;fill-opacity:1;fill-rule: evenodd"/>
<path id="Sketch021_w0058"  d="M 69.47870792625064 167.26740432637226 L 91.96495399970958 167.26740432637226 L 91.96495399970958 163.8431058511723 L 69.47870792625064 163.8431058511723 L 69.47870792625064 167.26740432637226 " stroke="#000000" stroke-width="0.35 px" style="stroke-width:0.35;stroke-miterlimit:4;stroke-dasharray:none;stroke-linecap:square;fill:none;fill-opacity:1;fill-rule: evenodd"/>
<path id="Sketch021_w0059"  d="M 61.9924618527917 177.84849408256883 L 84.47870792625064 177.84849408256883 L 84.47870792625064 174.4241956073689 L 61.9924618527917 174.4241956073689 L 61.9924618527917 177.84849408256883 " stroke="#000000" stroke-width="0.35 px" style="stroke-width:0.35;stroke-miterlimit:4;stroke-dasharray:none;stroke-linecap:square;fill:none;fill-opacity:1;fill-rule: evenodd"/>
<path id="Sketch021_w0060"  d="M 69.47870792625064 186.2727925577688 L 91.96495399970958 186.2727925577688 L 91.96495399970958 182.84849408256883 L 69.47870792625064 182.84849408256883 L 69.47870792625064 186.2727925577688 " stroke="#000000" stroke-width="0.35 px" style="stroke-width:0.35;stroke-miterlimit:4;stroke-dasharray:none;stroke-linecap:square;fill:none;fill-opacity:1;fill-rule: evenodd"/>
<path id="Sketch021_w0061"  d="M 93.98869277918755 6.800000000000002 L 116.46806187799307 6.800000000000002 L 116.46806187799307 2.8251010019807246 L 93.98869277918755 2.8251010019807246 L 93.98869277918755 6.800000000000002 " stroke="#000000" stroke-width="0.35 px" style="stroke-width:0.35;stroke-miterlimit:4;stroke-dasharray:none;stroke-linecap:square;fill:none;fill-opacity:1;fill-rule: evenodd"/>
<path id="Sketch021_w0062"  d="M 101.46806187799307 15.774898998019278 L 123.9474309767986 15.774898998019278 L 123.9474309767986 11.8 L 101.46806187799307 11.8 L 101.46806187799307 15.774898998019278 " stroke="#000000" stroke-width="0.35 px" style="stroke-width:0.35;stroke-miterlimit:4;stroke-dasharray:none;stroke-linecap:square;fill:none;fill-opacity:1;fill-rule: evenodd"/>
<path id="Sketch021_w0063"  d="M 93.98869277918755 25.805388231396538 L 116.46806187799307 25.805388231396538 L 116.46806187799307 21.83048923337726 L 93.98869277918755 21.83048923337726 L 93.98869277918755 25.805388231396538 " stroke="#000000" stroke-width="0.35 px" style="stroke-width:0.35;stroke-miterlimit:4;stroke-dasharray:none;stroke-linecap:square;fill:none;fill-opacity:1;fill-rule: evenodd"/>
<path id="Sketch021_w0064"  d="M 101.46806187799307 34.78028722941581 L 123.9474309767986 34.78028722941581 L 123.9474309767986 30.805388231396538 L 101.46806187799307 30.805388231396538 L 101.46806187799307 34.78028722941581 " stroke="#000000" stroke-width="0.35 px" style="stroke-width:0.35;stroke-miterlimit:4;stroke-dasharray:none;stroke-linecap:square;fill:none;fill-opacity:1;fill-rule: evenodd"/>
<path id="Sketch021_w0065"  d="M 93.98869277918755 44.81077646279307 L 116.46806187799307 44.81077646279307 L 116.46806187799307 40.8358774647738 L 93.98869277918755 40.8358774647738 L 93.98869277918755 44.81077646279307 " stroke="#000000" stroke-width="0.35 px" style="stroke-width:0.35;stroke-miterlimit:4;stroke-dasharray:none;stroke-linecap:square;fill:none;fill-opacity:1;fill-rule: evenodd"/>
<path id="Sketch021_w0066"  d="M 101.46806187799307 53.78567546081235 L 123.9474309767986 53.78567546081235 L 123.9474309767986 49.81077646279307 L 101.46806187799307 49.81077646279307 L 101.46806187799307 53.78567546081235 " stroke="#000000" stroke-width="0.35 px" style="stroke-width:0.35;stroke-miterlimit:4;stroke-dasharray:none;stroke-linecap:square;fill:none;fill-opacity:1;fill-rule: evenodd"/>
<path id="Sketch021_w0067"  d="M 93.98869277918755 63.81616469418961 L 116.46806187799307 63.81616469418961 L 116.46806187799307 59.84126569617034 L 93.98869277918755 59.84126569617034 L 93.98869277918755 63.81616469418961 " stroke="#000000" stroke-width="0.35 px" style="stroke-width:0.35;stroke-miterlimit:4;stroke-dasharray:none;stroke-linecap:square;fill:none;fill-opacity:1;fill-rule: evenodd"/>
<path id="Sketch021_w0068"  d="M 101.46806187799307 72.7910636922089 L 123.9474309767986 72.7910636922089 L 123.9474309767986 68.81616469418961 L 101.46806187799307 68.81616469418961 L 101.46806187799307 72.7910636922089 " stroke="#000000" stroke-width="0.35 px" style="stroke-width:0.35;stroke-miterlimit:4;stroke-dasharray:none;stroke-linecap:square;fill:none;fill-opacity:1;fill-rule: evenodd"/>
<path id="Sketch021_w0069"  d="M 93.98869277918755 82.82155292558615 L 116.46806187799307 82.82155292558615 L 116.46806187799307 78.84665392756688 L 93.98869277918755 78.84665392756688 L 93.98869277918755 82.82155292558615 " stroke="#000000" stroke-width="0.35 px" style="stroke-width:0.35;stroke-miterlimit:4;stroke-dasharray:none;stroke-linecap:square;fill:none;fill-opacity:1;fill-rule: evenodd"/>
<path id="Sketch021_w0070"  d="M 101.46806187799307 91.79645192360543 L 123.9474309767986 91.79645192360543 L 123.9474309767986 87.82155292558615 L 101.46806187799307 87.82155292558615 L 101.46806187799307 91.79645192360543 " stroke="#000000" stroke-width="0.35 px" style="stroke-width:0.35;stroke-miterlimit:4;stroke-dasharray:none;stroke-linecap:square;fill:none;fill-opacity:1;fill-rule: evenodd"/>
<path id="Sketch021_w0071"  d="M 93.98869277918755 101.82694115698268 L 116.46806187799307 101.82694115698268 L 116.46806187799307 97.85204215896341 L 93.98869277918755 97.85204215896341 L 93.98869277918755 101.82694115698268 " stroke="#000000" stroke-width="0.35 px" style="stroke-width:0.35;stroke-miterlimit:4;stroke-dasharray:none;stroke-linecap:square;fill:none;fill-opacity:1;fill-rule: evenodd"/>
<path id="Sketch021_w0072"  d="M 101.46806187799307 110.80184015500197 L 123.9474309767986 110.80184015500197 L 123.9474309767986 106.82694115698268 L 101.46806187799307 106.82694115698268 L 101.46806187799307 110.80184015500197 " stroke="#000000" stroke-width="0.35 px" style="stroke-width:0.35;stroke-miterlimit:4;stroke-dasharray:none;stroke-linecap:square;fill:none;fill-opacity:1;fill-rule: evenodd"/>
<path id="Sketch021_w0073"  d="M 93.98869277918755 120.83232938837922 L 116.46806187799308 120.83232938837922 L 116.46806187799308 116.85743039035995 L 93.98869277918755 116.85743039035995 L 93.98869277918755 120.83232938837922 " stroke="#000000" stroke-width="0.35 px" style="stroke-width:0.35;stroke-miterlimit:4;stroke-dasharray:none;stroke-linecap:square;fill:none;fill-opacity:1;fill-rule: evenodd"/>
<path id="Sketch021_w0074"  d="M 101.46806187799308 129.8072283863985 L 123.9474309767986 129.8072283863985 L 123.9474309767986 125.83232938837922 L 101.46806187799308 125.83232938837922 L 101.46806187799308 129.8072283863985 " stroke="#000000" stroke-width="0.35 px" style="stroke-width:0.35;stroke-miterlimit:4;stroke-dasharray:none;stroke-linecap:square;fill:none;fill-opacity:1;fill-rule: evenodd"/>
<path id="Sketch021_w0075"  d="M 93.98869277918755 139.83771761977576 L 116.46806187799308 139.83771761977576 L 116.46806187799308 135.86281862175647 L 93.98869277918755 135.86281862175647 L 93.98869277918755 139.83771761977576 " stroke="#000000" stroke-width="0.35 px" style="stroke-width:0.35;stroke-miterlimit:4;stroke-dasharray:none;stroke-linecap:square;fill:none;fill-opacity:1;fill-rule: evenodd"/>
<path id="Sketch021_w0076"  d="M 101.46806187799308 148.81261661779504 L 123.9474309767986 148.81261661779504 L 123.9474309767986 144.83771761977576 L 101.46806187799308 144.83771761977576 L 101.46806187799308 148.81261661779504 " stroke="#000000" stroke-width="0.35 px" style="stroke-width:0.35;stroke-miterlimit:4;stroke-dasharray:none;stroke-linecap:square;fill:none;fill-opacity:1;fill-rule: evenodd"/>
<path id="Sketch021_w0077"  d="M 93.98869277918755 158.8431058511723 L 116.46806187799308 158.8431058511723 L 116.46806187799308 154.86820685315303 L 93.98869277918755 154.86820685315303 L 93.98869277918755 158.8431058511723 " stroke="#000000" stroke-width="0.35 px" style="stroke-width:0.35;stroke-miterlimit:4;stroke-dasharray:none;stroke-linecap:square;fill:none;fill-opacity:1;fill-rule: evenodd"/>
<path id="Sketch021_w0078"  d="M 101.46806187799308 167.81800484919157 L 123.9474309767986 167.81800484919157 L 123.9474309767986 163.8431058511723 L 101.46806187799308 163.8431058511723 L 101.46806187799308 167.81800484919157 " stroke="#000000" stroke-width="0.35 px" style="stroke-width:0.35;stroke-miterlimit:4;stroke-dasharray:none;stroke-linecap:square;fill:none;fill-opacity:1;fill-rule: evenodd"/>
<path id="Sketch021_w0079"  d="M 93.98869277918755 177.84849408256883 L 116.46806187799308 177.84849408256883 L 116.46806187799308 173.87359508454955 L 93.98869277918755 173.87359508454955 L 93.98869277918755 177.84849408256883 " stroke="#000000" stroke-width="0.35 px" style="stroke-width:0.35;stroke-miterlimit:4;stroke-dasharray:none;stroke-linecap:square;fill:none;fill-opacity:1;fill-rule: evenodd"/>
<path id="Sketch021_w0080"  d="M 101.46806187799308 186.82339308058812 L 123.9474309767986 186.82339308058812 L 123.9474309767986 182.84849408256883 L 101.46806187799308 182.84849408256883 L 101.46806187799308 186.82339308058812 " stroke="#000000" stroke-width="0.35 px" style="stroke-width:0.35;stroke-miterlimit:4;stroke-dasharray:none;stroke-linecap:square;fill:none;fill-opacity:1;fill-rule: evenodd"/>
<path id="Sketch021_w0081"  d="M 125.98492370558338 6.8000000000000025 L 148.45741588937773 6.800000000000002 L 148.45741588937773 2.500000000000001 L 125.98492370558338 2.5000000000000013 L 125.98492370558338 6.8000000000000025 " stroke="#000000" stroke-width="0.35 px" style="stroke-width:0.35;stroke-miterlimit:4;stroke-dasharray:none;stroke-linecap:square;fill:none;fill-opacity:1;fill-rule: evenodd"/>
<path id="Sketch021_w0082"  d="M 133.45741588937773 16.1 L 155.9299080731721 16.1 L 155.9299080731721 11.8 L 133.45741588937773 11.8 L 133.45741588937773 16.1 " stroke="#000000" stroke-width="0.35 px" style="stroke-width:0.35;stroke-miterlimit:4;stroke-dasharray:none;stroke-linecap:square;fill:none;fill-opacity:1;fill-rule: evenodd"/>
<path id="Sketch021_w0083"  d="M 125.98492370558338 25.805388231396538 L 148.45741588937773 25.805388231396538 L 148.45741588937773 21.505388231396537 L 125.98492370558338 21.505388231396537 L 125.98492370558338 25.805388231396538 " stroke="#000000" stroke-width="0.35 px" style="stroke-width:0.35;stroke-miterlimit:4;stroke-dasharray:none;stroke-linecap:square;fill:none;fill-opacity:1;fill-rule: evenodd"/>
<path id="Sketch021_w0084"  d="M 133.45741588937773 35.10538823139654 L 155.9299080731721 35.10538823139654 L 155.9299080731721 30.805388231396538 L 133.45741588937773 30.805388231396538 L 133.45741588937773 35.10538823139654 " stroke="#000000" stroke-width="0.35 px" style="stroke-width:0.35;stroke-miterlimit:4;stroke-dasharray:none;stroke-linecap:square;fill:none;fill-opacity:1;fill-rule: evenodd"/>
<path id="Sketch021_w0085"  d="M 125.98492370558338 44.81077646279308 L 148.45741588937773 44.81077646279308 L 148.45741588937773 40.510776462793075 L 125.98492370558338 40.510776462793075 L 125.98492370558338 44.81077646279308 " stroke="#000000" stroke-width="0.35 px" style="stroke-width:0.35;stroke-miterlimit:4;stroke-dasharray:none;stroke-linecap:square;fill:none;fill-opacity:1;fill-rule: evenodd"/>
<path id="Sketch021_w0086"  d="M 133.45741588937773 54.110776462793076 L 155.9299080731721 54.110776462793076 L 155.9299080731721 49.81077646279308 L 133.45741588937773 49.81077646279308 L 133.45741588937773 54.110776462793076 " stroke="#000000" stroke-width="0.35 px" style="stroke-width:0.35;stroke-miterlimit:4;stroke-dasharray:none;stroke-linecap:square;fill:none;fill-opacity:1;fill-rule: evenodd"/>
<path id="Sketch021_w0087"  d="M 125.98492370558338 63.81616469418962 L 148.45741588937773 63.81616469418962 L 148.45741588937773 59.51616469418961 L 125.98492370558338 59.51616469418961 L 125.98492370558338 63.81616469418962 " stroke="#000000" stroke-width="0.35 px" style="stroke-width:0.35;stroke-miterlimit:4;stroke-dasharray:none;stroke-linecap:square;fill:none;fill-opacity:1;fill-rule: evenodd"/>
<path id="Sketch021_w0088"  d="M 133.45741588937773 73.1161646941896 L 155.9299080731721 73.1161646941896 L 155.9299080731721 68.81616469418961 L 133.45741588937773 68.81616469418961 L 133.45741588937773 73.1161646941896 " stroke="#000000" stroke-width="0.35 px" style="stroke-width:0.35;stroke-miterlimit:4;stroke-dasharray:none;stroke-linecap:square;fill:none;fill-opacity:1;fill-rule: evenodd"/>
<path id="Sketch021_w0089"  d="M 125.98492370558338 82.82155292558615 L 148.45741588937776 82.82155292558615 L 148.45741588937776 78.52155292558615 L 125.98492370558338 78.52155292558615 L 125.98492370558338 82.82155292558615 " stroke="#000000" stroke-width="0.35 px" style="stroke-width:0.35;stroke-miterlimit:4;stroke-dasharray:none;stroke-linecap:square;fill:none;fill-opacity:1;fill-rule: evenodd"/>
<path id="Sketch021_w0090"  d="M 133.45741588937776 92.12155292558614 L 155.9299080731721 92.12155292558614 L 155.9299080731721 87.82155292558615 L 133.45741588937776 87.82155292558615 L 133.45741588937776 92.12155292558614 " stroke="#000000" stroke-width="0.35 px" style="stroke-width:0.35;stroke-miterlimit:4;stroke-dasharray:none;stroke-linecap:square;fill:none;fill-opacity:1;fill-rule: evenodd"/>
<path id="Sketch021_w0091"  d="M 125.98492370558338 101.82694115698268 L 148.45741588937776 101.82694115698268 L 148.45741588937776 97.52694115698269 L 125.98492370558338 97.52694115698269 L 125.98492370558338 101.82694115698268 " stroke="#000000" stroke-width="0.35 px" style="stroke-width:0.35;stroke-miterlimit:4;stroke-dasharray:none;stroke-linecap:square;fill:none;fill-opacity:1;fill-rule: evenodd"/>
<path id="Sketch021_w0092"  d="M 133.45741588937776 111.12694115698268 L 155.9299080731721 111.12694115698268 L 155.9299080731721 106.82694115698268 L 133.45741588937776 106.82694115698268 L 133.45741588937776 111.12694115698268 " stroke="#000000" stroke-width="0.35 px" style="stroke-width:0.35;stroke-miterlimit:4;stroke-dasharray:none;stroke-linecap:square;fill:none;fill-opacity:1;fill-rule: evenodd"/>
<path id="Sketch021_w0093"  d="M 125.98492370558338 120.83232938837922 L 148.45741588937776 120.83232938837922 L 148.45741588937776 116.53232938837922 L 125.98492370558338 116.53232938837922 L 125.98492370558338 120.83232938837922 " stroke="#000000" stroke-width="0.35 px" style="stroke-width:0.35;stroke-miterlimit:4;stroke-dasharray:none;stroke-linecap:square;fill:none;fill-opacity:1;fill-rule: evenodd"/>
<path id="Sketch021_w0094"  d="M 133.45741588937776 130.13232938837922 L 155.9299080731721 130.13232938837922 L 155.9299080731721 125.83232938837922 L 133.45741588937776 125.83232938837922 L 133.45741588937776 130.13232938837922 " stroke="#000000" stroke-width="0.35 px" style="stroke-width:0.35;stroke-miterlimit:4;stroke-dasharray:none;stroke-linecap:square;fill:none;fill-opacity:1;fill-rule: evenodd"/>
<path id="Sketch021_w0095"  d="M 125.9849237055834 139.83771761977576 L 148.45741588937776 139.83771761977576 L 148.45741588937776 135.53771761977578 L 125.9849237055834 135.53771761977578 L 125.9849237055834 139.83771761977576 " stroke="#000000" stroke-width="0.35 px" style="stroke-width:0.35;stroke-miterlimit:4;stroke-dasharray:none;stroke-linecap:square;fill:none;fill-opacity:1;fill-rule: evenodd"/>
<path id="Sketch021_w0096"  d="M 133.45741588937776 149.13771761977577 L 155.9299080731721 149.13771761977577 L 155.9299080731721 144.83771761977576 L 133.45741588937776 144.83771761977576 L 133.45741588937776 149.13771761977577 " stroke="#000000" stroke-width="0.35 px" style="stroke-width:0.35;stroke-miterlimit:4;stroke-dasharray:none;stroke-linecap:square;fill:none;fill-opacity:1;fill-rule: evenodd"/>
<path id="Sketch021_w0097"  d="M 125.9849237055834 158.8431058511723 L 148.45741588937776 158.8431058511723 L 148.45741588937776 154.5431058511723 L 125.9849237055834 154.5431058511723 L 125.9849237055834 158.8431058511723 " stroke="#000000" stroke-width="0.35 px" style="stroke-width:0.35;stroke-miterlimit:4;stroke-dasharray:none;stroke-linecap:square;fill:none;fill-opacity:1;fill-rule: evenodd"/>
<path id="Sketch021_w0098"  d="M 133.45741588937776 168.1431058511723 L 155.9299080731721 168.1431058511723 L 155.9299080731721 163.8431058511723 L 133.45741588937776 163.8431058511723 L 133.45741588937776 168.1431058511723 " stroke="#000000" stroke-width="0.35 px" style="stroke-width:0.35;stroke-miterlimit:4;stroke-dasharray:none;stroke-linecap:square;fill:none;fill-opacity:1;fill-rule: evenodd"/>
<path id="Sketch021_w0099"  d="M 125.9849237055834 177.84849408256883 L 148.45741588937776 177.84849408256883 L 148.45741588937776 173.54849408256885 L 125.9849237055834 173.54849408256885 L 125.9849237055834 177.84849408256883 " stroke="#000000" stroke-width="0.35 px" style="stroke-width:0.35;stroke-miterlimit:4;stroke-dasharray:none;stroke-linecap:square;fill:none;fill-opacity:1;fill-rule: evenodd"/>
<path id="Sketch021_w0100"  d="M 133.45741588937776 187.14849408256885 L 155.9299080731721 187.14849408256885 L 155.9299080731721 182.84849408256883 L 133.45741588937776 182.84849408256883 L 133.45741588937776 187.14849408256885 " stroke="#000000" stroke-width="0.35 px" style="stroke-width:0.35;stroke-miterlimit:4;stroke-dasharray:none;stroke-linecap:square;fill:none;fill-opacity:1;fill-rule: evenodd"/>
<title>b'Sketch021'</title>
</g>
</svg>